<svg width="539" height="720" viewBox="0 0 539 720" fill="none" xmlns="http://www.w3.org/2000/svg">
<g clip-path="url(#clip0_210_3172)">
<path d="M-7.29515 303.326C24.1777 303.326 49.7875 277.719 49.7875 246.238C49.7875 214.762 24.1777 189.149 -7.29515 189.149C-38.768 189.149 -64.3777 214.757 -64.3777 246.238C-64.3777 277.719 -38.7728 303.326 -7.29515 303.326ZM-7.29515 216.339C9.1906 216.339 22.6057 229.755 22.6057 246.243C22.6057 262.73 9.19548 276.147 -7.29515 276.147C-23.7809 276.147 -37.196 262.73 -37.196 246.243C-37.196 229.755 -23.7858 216.339 -7.29515 216.339Z" fill="#FFEEEF"/>
<path d="M-129.31 720C-18.6501 720 71.3796 629.961 71.3796 519.289C71.3796 408.618 -18.6501 318.579 -129.31 318.579C-239.97 318.579 -330 408.618 -330 519.289C-330 629.961 -239.97 720 -129.31 720ZM-129.31 321.298C-20.1488 321.298 68.6605 410.117 68.6605 519.289C68.6605 628.462 -20.1488 717.281 -129.31 717.281C-238.472 717.281 -327.281 628.462 -327.281 519.289C-327.281 410.117 -238.472 321.298 -129.31 321.298Z" fill="#E20022"/>
<path d="M33.2383 417.982C59.3509 417.982 89.076 412.816 113.358 394.816C156.449 362.856 164.709 306.905 172.696 252.795C175.796 231.791 179.003 210.07 184.202 190.087C202.997 117.873 254.724 56.2292 322.571 25.1925C390.428 -5.84901 470.889 -4.67237 537.799 28.327L539 25.8907C471.363 -7.47481 390.037 -8.6612 321.444 22.7172C252.86 54.0908 200.571 116.403 181.571 189.398C176.333 209.523 173.116 231.318 170.006 252.394C162.098 305.958 153.921 361.343 111.737 392.628C79.4101 416.6 36.9972 417.274 7.11584 413.622C-58.4562 405.6 -120.933 372.425 -164.308 322.592L-166.358 324.374C-122.549 374.705 -59.4423 408.217 6.78394 416.317C14.8486 417.308 23.8115 417.982 33.2383 417.982Z" fill="#E1E9F4"/>
</g>
<defs>
<clipPath id="clip0_210_3172">
<rect width="869" height="720" fill="white" transform="matrix(-1 0 0 1 539 0)"/>
</clipPath>
</defs>
</svg>
