<svg width="45" height="41" viewBox="0 0 45 41" fill="none" xmlns="http://www.w3.org/2000/svg">
<g clip-path="url(#clip0_118_35)">
<path d="M39.059 39.6279C38.6406 40.0309 38.0816 40.2557 37.4992 40.2545H2.99922C2.4168 40.2557 1.85664 40.0309 1.43945 39.6279L17.1438 25.3455L17.7063 25.8591C19.1465 27.1637 21.3496 27.1637 22.791 25.8591L23.3535 25.3455L39.059 39.6279Z" fill="#FFEEEF"/>
<path d="M39.75 15.0278V38.0181C39.7523 38.6261 39.5027 39.2085 39.0598 39.6278L23.3555 25.3454L34.418 15.2818C35.1703 15.531 35.9578 15.658 36.7512 15.6545C37.7824 15.6556 38.8043 15.4425 39.75 15.0278Z" fill="#FFEEEF"/>
<path d="M37.5 15.6149V38.0181C37.5 38.0775 37.4871 38.1346 37.4824 38.1928L39.0574 39.6278C39.5016 39.2085 39.7523 38.6261 39.75 38.0181V15.0278C39.0363 15.3412 38.277 15.5392 37.5 15.6149Z" fill="#FFEEEF"/>
<path d="M17.1445 25.3454L1.44025 39.6279C0.997282 39.2086 0.747673 38.6262 0.750016 38.0182V12.6727C0.747673 12.0647 0.997282 11.4823 1.44025 11.063L17.1445 25.3454Z" fill="#FFEEEF"/>
<path d="M8.66955 10.4364H3.75002V8.20005C3.74767 7.59204 3.99611 7.00965 4.44025 6.59033L8.66955 10.4364Z" fill="#FFEEEF"/>
<path d="M32.7742 1.88589C31.2578 2.82353 30.1293 4.27017 29.5937 5.96375H11.6699L7.43945 2.11767C7.85781 1.71583 8.4168 1.49103 8.99922 1.49219H31.4992C31.9551 1.49219 32.3992 1.62847 32.7742 1.88589Z" fill="#FFEEEF"/>
<path d="M31.4992 1.49097H29.2492C29.7051 1.49097 30.1492 1.62841 30.5242 1.88582C29.0078 2.82347 27.8793 4.27011 27.3438 5.96369H29.5937C30.1293 4.27011 31.2578 2.82347 32.7742 1.88582C32.3992 1.62841 31.9551 1.49213 31.4992 1.49097Z" fill="#FFEEEF"/>
<path d="M11.6707 5.96376H6.75002V3.72739C6.74767 3.11938 6.99611 2.53699 7.44025 2.11768L11.6707 5.96376Z" fill="#FFEEEF"/>
<path d="M29.5937 10.4363H27.3437C28.0703 12.7297 29.8668 14.5339 32.166 15.2817L21.1035 25.3454L20.541 25.859C20.1332 26.2248 19.6492 26.4962 19.123 26.6534C20.4004 27.0564 21.7973 26.7536 22.791 25.859L23.3535 25.3454L34.416 15.2817C32.1168 14.5339 30.3215 12.7297 29.5937 10.4363Z" fill="#FFEEEF"/>
<path d="M29.2504 8.19993C29.2492 8.95936 29.3652 9.71297 29.5949 10.4363H8.66992L4.43945 6.58905C4.85781 6.1872 5.4168 5.9624 5.99922 5.9624H29.5938C29.3652 6.68689 29.2492 7.44166 29.2504 8.19993Z" fill="#FFEEEF"/>
<path d="M29.5954 5.96362H27.3454C26.8849 7.41959 26.8849 8.98038 27.3454 10.4363H29.5954C29.136 8.98038 29.136 7.41959 29.5954 5.96362Z" fill="#FFEEEF"/>
<path d="M36.7504 0.745361C36.3684 0.746526 35.9863 0.77681 35.609 0.836214C38.9148 1.32425 41.4977 3.92985 41.9359 7.22383C42.3754 10.5178 40.5648 13.7023 37.5004 15.029C36.8922 15.2922 36.2512 15.4727 35.5938 15.5659C35.977 15.6253 36.3637 15.6545 36.7504 15.6545C37.7828 15.6556 38.8047 15.4425 39.7504 15.0278C43.0012 13.6138 44.8082 10.1276 44.084 6.67638C43.3586 3.224 40.2988 0.75002 36.7504 0.745361Z" fill="#FFEEEF"/>
<path d="M3 40.2546H5.25C4.00664 40.2546 3 39.2529 3 38.0182V12.6728C3 11.437 4.00664 10.4364 5.25 10.4364H6V8.20006C6 6.9654 7.00781 5.96369 8.25 5.96369H9V3.72733C9 2.49151 10.0066 1.49097 11.25 1.49097H9C7.75664 1.49097 6.75 2.49151 6.75 3.72733V5.96369H6C4.75781 5.96369 3.75 6.9654 3.75 8.20006V10.4364H3C1.75781 10.4364 0.75 11.4381 0.75 12.6728V38.0182C0.75 39.2529 1.75781 40.2546 3 40.2546Z" fill="white"/>
<path d="M1.5 12.6726H0V18.6362H1.5V12.6726Z" fill="white"/>
<path d="M11.25 14.1635H9.75C9.33633 14.1635 9 13.8292 9 13.4181C9 13.0069 9.33516 12.6726 9.75 12.6726H11.25C11.6648 12.6726 12 13.0057 12 13.4181C12 13.8292 11.6637 14.1635 11.25 14.1635Z" fill="#DF0A0A"/>
<path d="M26.25 14.1635H14.25C13.8352 14.1635 13.5 13.8292 13.5 13.4181C13.5 13.0069 13.8363 12.6726 14.25 12.6726H26.25C26.6648 12.6726 27 13.0057 27 13.4181C27 13.8292 26.6648 14.1635 26.25 14.1635Z" fill="#DF0A0A"/>
<path d="M1.5 15.6546C1.5 16.067 1.16367 16.4001 0.75 16.4001C0.336328 16.4001 0 16.0658 0 15.6546C0 15.2435 0.336328 14.9092 0.75 14.9092C1.16367 14.9092 1.5 15.2435 1.5 15.6546Z" fill="#DF0A0A"/>
<path d="M36.75 2.86435e-06C35.3543 -0.00116191 33.982 0.352929 32.7621 1.02617C32.3672 0.842134 31.9359 0.745457 31.5 0.745457H9C7.34297 0.745457 6 2.08029 6 3.72728V5.21818C4.34297 5.21818 3 6.55301 3 8.2V9.69091C1.34297 9.69091 0 11.0257 0 12.6727C0 13.0851 0.336328 13.4182 0.75 13.4182C1.16484 13.4182 1.5 13.0851 1.5 12.6727C1.50117 12.512 1.5293 12.3536 1.58203 12.2023L16.0336 25.3455L1.5832 38.4876C1.53047 38.3362 1.50234 38.1778 1.5 38.0182V18.6364C1.5 18.224 1.16367 17.8909 0.75 17.8909C0.336328 17.8909 0 18.224 0 18.6364V38.0182C0 39.6652 1.34297 41 3 41H37.5C39.157 41 40.5 39.6652 40.5 38.0182V15.495C43.8961 13.7734 45.6621 9.9623 44.7703 6.27813C43.8785 2.59395 40.5621 -0.00232668 36.75 2.86435e-06ZM31.1051 2.23637C30.2133 3.06801 29.5195 4.08719 29.073 5.21818H11.9613L8.71289 2.26549C8.80664 2.24685 8.90391 2.23637 9 2.23637H31.1051ZM7.5 3.72728C7.50234 3.56654 7.53047 3.40929 7.5832 3.25787L9.73945 5.21818H7.5V3.72728ZM28.643 6.70909C28.452 7.69333 28.452 8.70551 28.643 9.69091H8.96133L5.71289 6.73821C5.80781 6.71958 5.90391 6.71026 6 6.70909H28.643ZM4.5 8.2C4.50234 8.04043 4.53047 7.88202 4.5832 7.7306L6.73945 9.69091H4.5V8.2ZM29.073 11.1818C29.8184 13.0629 31.2328 14.6063 33.048 15.5171L22.848 24.7969L22.2867 25.3105C21.1312 26.3507 19.3711 26.3507 18.2156 25.3105L2.71289 11.2098C2.80781 11.1911 2.90391 11.1818 3 11.1818H29.073ZM3 39.5091C2.90391 39.5091 2.80781 39.4986 2.71406 39.48L17.1434 26.36L17.2008 26.4124C18.9316 27.9709 21.5684 27.9709 23.2992 26.4124L23.3555 26.3611L37.7848 39.4811C37.691 39.4998 37.5949 39.5091 37.4988 39.5091H3ZM39 38.0182C38.9977 38.1778 38.9695 38.3362 38.9168 38.4876L24.4676 25.3455L34.616 16.1123C36.0516 16.506 37.5691 16.4955 39 16.0832V38.0182ZM36.75 14.9091C33.0223 14.9091 30 11.9051 30 8.2C30 4.49486 33.0223 1.49091 36.75 1.49091C40.4777 1.49091 43.5 4.49486 43.5 8.2C43.4953 11.9028 40.4754 14.9044 36.75 14.9091Z" fill="#DF0A0A"/>
<path d="M37.038 3.03882C36.7579 2.92351 36.4356 2.98757 36.22 3.20073L34.72 4.69164C34.4364 4.98399 34.4399 5.44874 34.7294 5.73644C35.0188 6.02414 35.4864 6.02763 35.7805 5.74576L36.0009 5.52678V12.6727C36.0009 13.085 36.3372 13.4181 36.7509 13.4181C37.1645 13.4181 37.5009 13.085 37.5009 12.6727V3.7272C37.5009 3.42553 37.318 3.15414 37.038 3.03882Z" fill="#DF0A0A"/>
</g>
<defs>
<clipPath id="clip0_118_35">
<rect width="45" height="41" fill="white"/>
</clipPath>
</defs>
</svg>
