<svg width="41" height="41" viewBox="0 0 41 41" fill="none" xmlns="http://www.w3.org/2000/svg">
<g clip-path="url(#clip0_119_80)">
<path d="M19.3782 0.718353C11.891 1.14432 5.28662 5.75955 2.31329 12.6434C-0.661117 19.5262 0.50473 27.499 5.32719 33.2416C5.53324 33.4818 5.54605 33.8341 5.35602 34.0893L1.50403 39.2234C1.34922 39.4305 1.3236 39.7081 1.43997 39.9387C1.55527 40.1703 1.79229 40.3166 2.05065 40.3166H20.4992C27.7078 40.3091 34.3442 36.3889 37.8278 30.0783C41.3115 23.7678 41.0937 16.0619 37.2577 9.95947C33.4228 3.85602 26.5751 0.316937 19.3782 0.718353Z" fill="#FFEEEF"/>
<path d="M19.4869 0.716108C30.207 1.2862 38.5227 10.2903 38.2419 21.0207C37.9611 31.7522 29.1842 40.3079 18.4492 40.3165H20.4991C27.7087 40.3304 34.3568 36.4283 37.8597 30.1263C41.3615 23.8242 41.1651 16.1183 37.3451 10.0042C33.5262 3.89007 26.6859 0.332841 19.4869 0.716108Z" fill="#FFEEEF"/>
<path d="M32.1163 15.7192C32.1163 27.3347 20.5005 36.9003 20.5005 36.9003C20.5005 36.9003 8.88477 27.3347 8.88477 15.7192C8.88477 9.30403 14.0852 4.10376 20.5005 4.10376C26.9159 4.10376 32.1163 9.30509 32.1163 15.7192Z" fill="white"/>
<path d="M20.4995 4.10376C20.1536 4.10376 19.8162 4.12618 19.4746 4.15607C25.4672 4.68453 30.0644 9.70331 30.0654 15.7192C30.0654 25.2112 22.3102 33.3324 19.4746 35.9843C20.1088 36.5769 20.4995 36.9003 20.4995 36.9003C20.4995 36.9003 32.1153 27.3347 32.1153 15.7192C32.1164 9.30509 26.9149 4.10376 20.4995 4.10376Z" fill="#FFEEEF"/>
<path d="M25.9657 15.719C25.9657 18.7382 23.5187 21.1851 20.4994 21.1851C17.4802 21.1851 15.0332 18.7382 15.0332 15.719C15.0332 12.6999 17.4802 10.2529 20.4994 10.2529C23.5187 10.2529 25.9657 12.7009 25.9657 15.719Z" fill="#FFEEEF"/>
<path d="M3.55493 39.2233L7.40586 34.0882C7.59589 33.8341 7.58308 33.4818 7.37703 33.2405C2.55564 27.499 1.38872 19.5261 4.36206 12.6423C7.33646 5.7584 13.9408 1.14318 21.428 0.717211H21.4878C20.828 0.685183 20.1618 0.683048 19.4871 0.717211C19.4508 0.717211 19.4145 0.717211 19.3782 0.717211C11.891 1.14318 5.28662 5.7584 2.31329 12.6423C-0.661117 19.5261 0.50473 27.499 5.32719 33.2405C5.53324 33.4818 5.54605 33.833 5.35602 34.0882L1.50403 39.2233C1.34922 39.4304 1.3236 39.708 1.43997 39.9386C1.55527 40.1703 1.79229 40.3165 2.05065 40.3165H4.10049C3.84212 40.3165 3.60511 40.1703 3.48981 39.9386C3.37344 39.708 3.39906 39.4315 3.55493 39.2233Z" fill="white"/>
<path d="M0.890217 14.6035L2.19699 15.0017C1.70054 16.6907 1.42189 18.4362 1.36851 20.1956L0.00195312 20.1742C0.0585372 18.2867 0.356405 16.4142 0.890217 14.6035Z" fill="white"/>
<path d="M0.959923 18.1458C0.581984 18.148 0.275576 17.8426 0.27344 17.4658C0.272373 17.0889 0.576646 16.7814 0.953517 16.7793H0.960991C1.33786 16.7793 1.64427 17.0846 1.64427 17.4626C1.64214 17.8394 1.33679 18.1458 0.959923 18.1458Z" fill="#DF0A0A"/>
<path d="M34.5456 5.57279C30.462 1.70275 24.9552 -0.302196 19.3394 0.0372996C17.2554 0.176087 15.2024 0.620208 13.2476 1.35365C11.2949 2.09349 9.47139 3.1376 7.84433 4.44648C4.55071 7.04928 2.12613 10.5916 0.889819 14.6036C0.838573 14.7808 0.859926 14.9719 0.950674 15.1331C1.04035 15.2943 1.19089 15.4139 1.36811 15.463C1.72363 15.5634 2.0941 15.3573 2.19659 15.0018C3.35176 11.2556 5.61726 7.94819 8.69309 5.51728C11.7593 3.07568 15.5035 1.6387 19.4163 1.40169C24.6509 1.10383 29.7787 2.96892 33.6008 6.55818C37.4229 10.1485 39.603 15.1491 39.6329 20.3921C39.6862 25.492 37.6908 30.4008 34.094 34.0168C30.4983 37.6338 25.6011 39.6569 20.501 39.6334H2.05139L5.90339 34.4972C6.28453 33.989 6.26318 33.2844 5.85107 32.8008C2.88735 29.2756 1.29552 24.7991 1.36918 20.1946C1.37239 20.0131 1.30299 19.838 1.17701 19.7078C1.05103 19.5775 0.878075 19.5028 0.696579 19.5007C0.320775 19.4985 0.0111637 19.7975 0.00262274 20.1743C-0.0763815 25.1087 1.63182 29.9044 4.81121 33.6794L0.960282 38.8146C0.649603 39.2288 0.599425 39.7829 0.8311 40.2462C1.06277 40.7095 1.53573 41.001 2.05353 41.001H20.5021C28.9075 41.001 36.4599 35.8701 39.5581 28.0575C42.6532 20.2437 40.6674 11.3314 34.5456 5.57279Z" fill="#DF0A0A"/>
<path d="M20.5002 37.5835C20.6593 37.5835 20.813 37.528 20.9347 37.4276C21.4194 37.0294 32.7992 27.5214 32.7992 15.7191C32.7992 8.92708 27.2935 3.42041 20.5002 3.42041C13.7069 3.42041 8.20117 8.92708 8.20117 15.7191C8.20117 27.5214 19.581 37.0294 20.0657 37.4276C20.1885 37.5291 20.3422 37.5846 20.5002 37.5835ZM9.5688 15.7191C9.5688 9.68187 14.4628 4.78693 20.5013 4.78693C26.5398 4.78693 31.4338 9.6808 31.4338 15.7191C31.4338 25.6083 22.5842 34.1266 20.5013 35.9939C18.4173 34.1266 9.5688 25.6083 9.5688 15.7191Z" fill="#DF0A0A"/>
<path d="M26.6506 15.7192C26.6506 12.3232 23.8972 9.56982 20.5011 9.56982C17.105 9.56982 14.3516 12.3232 14.3516 15.7192C14.3516 19.1152 17.105 21.8685 20.5011 21.8685C23.8951 21.8653 26.6463 19.1141 26.6506 15.7192ZM15.7171 15.7192C15.7171 13.0779 17.8587 10.9363 20.5 10.9363C23.1413 10.9363 25.283 13.0779 25.283 15.7192C25.283 18.3604 23.1413 20.502 20.5 20.502C17.8598 20.4999 15.7203 18.3594 15.7171 15.7192Z" fill="#DF0A0A"/>
</g>
<defs>
<clipPath id="clip0_119_80">
<rect width="41" height="41" fill="white"/>
</clipPath>
</defs>
</svg>
