<svg width="35" height="41" viewBox="0 0 35 41" fill="none" xmlns="http://www.w3.org/2000/svg">
<g clip-path="url(#clip0_119_59)">
<path d="M33.4677 29.3086L32.0414 30.7575L23.4785 22.0589L24.9048 20.61C25.6931 19.8113 26.9691 19.8113 27.7573 20.61L33.4688 26.4119C34.2539 27.2105 34.2539 28.5078 33.4677 29.3086Z" fill="white"/>
<path d="M33.469 26.4109L27.7576 20.609C27.1101 19.9545 26.1106 19.8253 25.3223 20.293C25.4747 20.3794 25.6145 20.4862 25.7385 20.609L31.4499 26.4109C32.2371 27.2117 32.2371 28.5079 31.4499 29.3087L31.0326 29.7326L32.0416 30.7576L33.4679 29.3087C34.2552 28.5079 34.2551 27.2106 33.469 26.4109Z" fill="white"/>
<path d="M32.0424 30.7565L29.6607 33.1759C25.8601 37.0367 18.2452 32.2054 10.6377 24.4773C3.02916 16.7481 -1.73315 9.01259 2.07376 5.15283L4.45544 2.7334L13.012 11.432L11.4586 13.0112C10.9814 13.4916 10.9278 14.2561 11.3304 14.8017C12.5822 16.5026 13.9391 18.1212 15.3937 19.647C16.8978 21.1225 18.4901 22.5009 20.1634 23.7747C20.6984 24.1847 21.4488 24.1292 21.9187 23.6445L23.4795 22.0589L32.0424 30.7565Z" fill="#FFEEEF"/>
<path d="M10.9929 11.432L9.43841 13.0112C8.96123 13.4916 8.90762 14.2561 9.31123 14.8017C10.563 16.5026 11.9199 18.1212 13.3746 19.647C14.8776 21.1225 16.471 22.5009 18.1443 23.7747C18.6792 24.1847 19.4297 24.1292 19.8995 23.6445L19.9405 23.6028C18.3471 22.3792 16.8283 21.0574 15.3926 19.647C13.938 18.1212 12.581 16.5026 11.3292 14.8017C10.9256 14.2561 10.9803 13.4916 11.4575 13.0112L13.0109 11.432L4.45432 2.7334L3.44531 3.7584L10.9929 11.432Z" fill="#FFEEEF"/>
<path d="M23.4778 22.0579L22.4688 23.0829L30.0227 30.7565L27.642 33.1759C26.9914 33.8443 26.1516 34.2874 25.2393 34.4454C26.8296 34.7978 28.4871 34.3216 29.659 33.1759L32.0407 30.7565L23.4778 22.0579Z" fill="#FFEEEF"/>
<path d="M14.4443 9.98315L13.0117 11.432L4.45508 2.73341L5.88135 1.28453C6.66964 0.485885 7.94562 0.485885 8.73391 1.28453L14.4453 7.07899C15.2315 7.8819 15.2315 9.18023 14.4443 9.98315Z" fill="white"/>
<path d="M14.4445 7.07899L8.73411 1.28453C8.08667 0.630027 7.08712 0.500835 6.29883 0.968491C6.45018 1.05498 6.59102 1.16068 6.71504 1.28453L12.4254 7.07899C13.2126 7.8819 13.2126 9.18024 12.4254 9.98315L12.005 10.4092L13.014 11.4342L14.4466 9.98529C15.2349 9.1813 15.2338 7.8819 14.4445 7.07899Z" fill="white"/>
<path d="M25.241 34.4454C25.4502 34.4774 25.6552 34.5009 25.858 34.5137H25.9158C26.1061 34.5255 26.2931 34.5287 26.476 34.5233H26.5254C26.7672 34.5127 27.0079 34.4849 27.2454 34.4411C23.2346 33.8144 17.9446 29.8468 12.6568 24.4751C5.0472 16.7481 0.284884 9.01258 4.09284 5.15282L5.46341 3.75839L6.47347 2.73339L7.89975 1.28451C8.02482 1.16066 8.16567 1.05495 8.31912 0.969536C7.52978 0.50188 6.53128 0.631073 5.88173 1.28451L2.07377 5.15282C-1.73313 9.01365 3.02918 16.7492 10.6367 24.4773C15.9308 29.8553 21.2281 33.8251 25.241 34.4454Z" fill="white"/>
<path d="M1.58737 10.092L0.274604 10.3867C0.0391685 9.40765 0.00448385 8.39012 0.174754 7.39715C0.369199 6.36147 0.865295 5.40908 1.59893 4.66382L2.55118 5.63223C2.00674 6.18317 1.63887 6.88999 1.49698 7.65767C1.36244 8.467 1.39397 9.29554 1.58737 10.092Z" fill="white"/>
<path d="M0.845759 8.20016C0.473687 8.2023 0.172035 7.89693 0.169933 7.52003C0.167831 7.14313 0.46738 6.83563 0.838401 6.8335H0.845759C1.21783 6.8335 1.51843 7.13993 1.51843 7.51683C1.51843 7.89373 1.21783 8.20016 0.845759 8.20016Z" fill="#DF0A0A"/>
<path d="M2.75319 41.0001H31.5772C32.9572 40.999 34.1975 40.1417 34.7041 38.8369C35.2107 37.5333 34.8807 36.0459 33.8727 35.0882L31.2136 32.5652L33.9431 29.7934C34.4476 29.2809 34.7314 28.5859 34.7314 27.8609C34.7314 27.1359 34.4476 26.4408 33.9431 25.9283L28.2359 20.1296C27.1702 19.0982 25.4958 19.0982 24.4311 20.1296L23.0048 21.5785L21.4472 23.1608C21.2128 23.4043 20.8355 23.432 20.5685 23.2249C18.9205 21.9725 17.3512 20.6154 15.8703 19.1623C14.4398 17.6579 13.1029 16.0638 11.87 14.3886C11.6682 14.1184 11.6966 13.7383 11.9341 13.5002L13.4918 11.9179L14.9181 10.469C15.9681 9.40129 15.9681 7.6716 14.9181 6.60389L9.21085 0.800898C8.14508 -0.230508 6.47076 -0.230508 5.40499 0.800898L3.97766 2.24978L1.59914 4.66707C1.33637 4.934 1.33637 5.36642 1.59914 5.63335C1.8619 5.90027 2.28863 5.90027 2.55139 5.63228L4.45379 3.69866L12.0634 11.4299L10.9808 12.5297C10.2714 13.2536 10.1925 14.396 10.7958 15.2128C12.0666 16.9382 13.4424 18.5804 14.917 20.1286C16.441 21.6255 18.0575 23.0242 19.755 24.315C20.559 24.9268 21.6837 24.8468 22.3963 24.1271L23.4789 23.0263L31.0895 30.7576L29.7536 32.1157L29.1871 32.6912C26.1632 35.7609 19.5774 32.594 11.1122 23.9926C9.08998 21.9639 7.20544 19.7986 5.47121 17.5105C4.61776 16.3756 3.83998 15.1829 3.14208 13.9423C2.44733 12.7389 1.92391 11.4427 1.58757 10.09C1.49929 9.73868 1.164 9.51233 0.811899 9.56572C0.629017 9.59241 0.466104 9.69704 0.363101 9.854C0.260098 10.0099 0.227515 10.2031 0.273761 10.3857C0.636374 11.8677 1.20709 13.2899 1.967 14.6085C2.69328 15.9036 3.50469 17.1475 4.39493 18.3327C6.16595 20.672 8.09253 22.8864 10.1589 24.961C16.812 31.7185 22.3647 35.2046 26.3209 35.2046C27.7493 35.2441 29.1293 34.6846 30.1373 33.6564L30.2613 33.5304L32.9562 36.0887C33.5595 36.6642 33.756 37.5546 33.4512 38.3362C33.1475 39.1177 32.4044 39.6313 31.5772 39.6324H2.75319C2.0101 39.6324 1.40785 39.0206 1.40785 38.2657C1.40785 37.5108 2.0101 36.899 2.75319 36.899H11.4979C12.9841 36.899 14.1886 35.6755 14.1886 34.1657C14.1886 32.656 12.9841 31.4324 11.4979 31.4324H4.77121C4.02812 31.4324 3.42586 30.8206 3.42586 30.0657V26.649C3.42586 26.2711 3.12421 25.9657 2.75319 25.9657C2.38112 25.9657 2.08052 26.2721 2.08052 26.649V30.0657C2.08052 31.5755 3.28502 32.799 4.77121 32.799H11.4979C12.241 32.799 12.8433 33.4108 12.8433 34.1657C12.8433 34.9206 12.241 35.5324 11.4979 35.5324H2.75319C1.267 35.5324 0.0625 36.756 0.0625 38.2657C0.0625 39.7765 1.267 41.0001 2.75319 41.0001ZM5.40394 2.73345L6.35514 1.76717C6.88803 1.2504 7.72571 1.2504 8.2586 1.76717L13.9658 7.56483C14.4913 8.09868 14.4913 8.96353 13.9658 9.49738L13.0146 10.4637L5.40394 2.73345ZM24.4301 22.0611L25.3813 21.0948C25.9142 20.5781 26.7518 20.5781 27.2847 21.0948L32.9919 26.8936C33.2442 27.1498 33.3861 27.4979 33.3861 27.8598C33.3861 28.2218 33.2442 28.5699 32.9919 28.8261L32.0407 29.7934L24.4301 22.0611Z" fill="#DF0A0A"/>
<path d="M23.6069 11.6167C23.7856 11.6167 23.9559 11.5441 24.082 11.416L28.7907 6.63267C29.0461 6.36468 29.0419 5.93866 28.7823 5.67494C28.5227 5.41122 28.1033 5.40801 27.8395 5.6664L23.1308 10.4497C22.9385 10.6451 22.8807 10.9387 22.9847 11.1939C23.0898 11.4502 23.3347 11.6167 23.6069 11.6167Z" fill="#DF0A0A"/>
<path d="M20.9149 9.56672C21.2869 9.56672 21.5875 9.26028 21.5875 8.88338V2.73338C21.5875 2.35541 21.2869 2.05005 20.9149 2.05005C20.5428 2.05005 20.2422 2.35648 20.2422 2.73338V8.88338C20.2422 9.26028 20.5438 9.56672 20.9149 9.56672Z" fill="#DF0A0A"/>
<path d="M24.9512 13.6667C24.9512 14.0447 25.2528 14.3501 25.6238 14.3501H31.6779C32.05 14.3501 32.3506 14.0447 32.3506 13.6667C32.3506 13.2888 32.0489 12.9834 31.6779 12.9834H25.6238C25.2528 12.9834 24.9512 13.2888 24.9512 13.6667Z" fill="#DF0A0A"/>
</g>
<defs>
<clipPath id="clip0_119_59">
<rect width="35" height="41" fill="white"/>
</clipPath>
</defs>
</svg>
