<!DOCTYPE svg PUBLIC "-//W3C//DTD SVG 1.1//EN" "http://www.w3.org/Graphics/SVG/1.1/DTD/svg11.dtd">
<!-- Uploaded to: SVG Repo, www.svgrepo.com, Transformed by: SVG Repo Mixer Tools -->
<svg width="800px" height="800px" viewBox="0 0 1024 1024" class="icon" version="1.1" xmlns="http://www.w3.org/2000/svg" fill="#000000">
<g id="SVGRepo_bgCarrier" stroke-width="0"/>
<g id="SVGRepo_tracerCarrier" stroke-linecap="round" stroke-linejoin="round"/>
<g id="SVGRepo_iconCarrier">
<path d="M505.6 736C384 736 281.6 640 281.6 518.4S384 294.4 505.6 294.4s224 102.4 224 224-102.4 217.6-224 217.6z m0-428.8C390.4 307.2 300.8 396.8 300.8 512c0 115.2 89.6 204.8 204.8 204.8 115.2 0 204.8-89.6 204.8-204.8 0-108.8-89.6-204.8-204.8-204.8z" fill="#d5e1e1"/>
<path d="M512 864C320 864 160 704 160 512S320 166.4 512 166.4s352 160 352 352S704 864 512 864zM512 185.6c-185.6 0-332.8 147.2-332.8 332.8s147.2 332.8 332.8 332.8 332.8-147.2 332.8-332.8S697.6 185.6 512 185.6z" fill="#d5e1e1"/>
<path d="M505.6 518.4m-128 0a128 128 0 1 0 256 0 128 128 0 1 0-256 0Z" fill="#ffffff"/>
<path d="M691.2 230.4m-70.4 0a70.4 70.4 0 1 0 140.8 0 70.4 70.4 0 1 0-140.8 0Z" fill="#fd7e14"/>
<path d="M300.8 441.6m-38.4 0a38.4 38.4 0 1 0 76.8 0 38.4 38.4 0 1 0-76.8 0Z" fill="#d5e1e1"/>
</g>
</svg>