<svg width="275" height="172" viewBox="0 0 275 172" fill="none" xmlns="http://www.w3.org/2000/svg">
<g clip-path="url(#clip0_182_781)">
<path d="M265.597 166.855C266.121 166.332 266.969 166.332 267.493 166.855C268.017 167.379 268.017 168.228 267.493 168.751C266.969 169.275 266.121 169.275 265.597 168.751C265.074 168.224 265.074 167.379 265.597 166.855Z" fill="#E1E9F4"/>
<path d="M242.991 166.183C243.885 166.183 244.609 166.908 244.609 167.802C244.609 168.695 243.885 169.42 242.991 169.42C242.097 169.42 241.372 168.695 241.372 167.802C241.372 166.908 242.097 166.183 242.991 166.183Z" fill="#E1E9F4"/>
<path d="M253.819 155.077C254.343 154.553 255.191 154.553 255.715 155.077C256.239 155.601 256.239 156.449 255.715 156.973C255.191 157.497 254.343 157.497 253.819 156.973C253.295 156.449 253.295 155.601 253.819 155.077Z" fill="#E1E9F4"/>
<path d="M266.543 143.182C267.131 143.182 267.607 143.658 267.607 144.245C267.607 144.832 267.131 145.308 266.543 145.308C265.956 145.308 265.48 144.832 265.48 144.245C265.48 143.658 265.956 143.182 266.543 143.182Z" fill="#E1E9F4"/>
<path d="M218.062 166.429C218.82 165.671 220.048 165.671 220.806 166.429C221.565 167.188 221.565 168.415 220.806 169.174C220.048 169.932 218.82 169.932 218.062 169.174C217.304 168.415 217.304 167.188 218.062 166.429Z" fill="#E1E9F4"/>
<path d="M230.067 154.882C230.7 154.252 231.721 154.252 232.354 154.882C232.987 155.511 232.987 156.535 232.354 157.169C231.724 157.798 230.7 157.798 230.067 157.169C229.438 156.535 229.438 155.511 230.067 154.882Z" fill="#E1E9F4"/>
<path d="M242.041 143.299C242.565 142.775 243.413 142.775 243.937 143.299C244.461 143.823 244.461 144.671 243.937 145.195C243.413 145.719 242.565 145.719 242.041 145.195C241.521 144.671 241.521 143.823 242.041 143.299Z" fill="#E1E9F4"/>
<path d="M254.765 131.407C255.352 131.407 255.828 131.883 255.828 132.471C255.828 133.058 255.352 133.534 254.765 133.534C254.178 133.534 253.702 133.058 253.702 132.471C253.702 131.883 254.178 131.407 254.765 131.407Z" fill="#E1E9F4"/>
<path d="M266.543 119.954C266.951 119.954 267.282 120.284 267.282 120.692C267.282 121.1 266.951 121.431 266.543 121.431C266.135 121.431 265.805 121.1 265.805 120.692C265.805 120.284 266.135 119.954 266.543 119.954Z" fill="#E1E9F4"/>
<path d="M195.881 165.538C197.132 165.538 198.145 166.551 198.145 167.801C198.145 169.052 197.132 170.065 195.881 170.065C194.631 170.065 193.618 169.052 193.618 167.801C193.618 166.551 194.631 165.538 195.881 165.538Z" fill="#E1E9F4"/>
<path d="M206.284 154.651C207.042 153.893 208.27 153.893 209.028 154.651C209.786 155.409 209.786 156.637 209.028 157.395C208.27 158.154 207.042 158.154 206.284 157.395C205.529 156.637 205.529 155.409 206.284 154.651Z" fill="#E1E9F4"/>
<path d="M218.293 143.104C218.922 142.47 219.946 142.47 220.579 143.104C221.209 143.733 221.209 144.757 220.579 145.39C219.95 146.02 218.926 146.02 218.293 145.39C217.659 144.757 217.659 143.733 218.293 143.104Z" fill="#E1E9F4"/>
<path d="M230.266 131.521C230.79 130.997 231.638 130.997 232.162 131.521C232.686 132.044 232.686 132.893 232.162 133.417C231.638 133.94 230.79 133.94 230.266 133.417C229.743 132.893 229.743 132.044 230.266 131.521Z" fill="#E1E9F4"/>
<path d="M242.991 119.629C243.578 119.629 244.054 120.105 244.054 120.692C244.054 121.28 243.578 121.756 242.991 121.756C242.403 121.756 241.927 121.28 241.927 120.692C241.927 120.105 242.403 119.629 242.991 119.629Z" fill="#E1E9F4"/>
<path d="M254.245 108.39C254.534 108.101 255 108.101 255.289 108.39C255.578 108.68 255.578 109.149 255.289 109.434C255 109.723 254.534 109.723 254.245 109.434C253.956 109.149 253.956 108.68 254.245 108.39Z" fill="#E1E9F4"/>
<path d="M266.543 96.7214C266.772 96.7214 266.958 96.907 266.958 97.1358C266.958 97.3647 266.772 97.5502 266.543 97.5502C266.314 97.5502 266.129 97.3647 266.129 97.1358C266.129 96.907 266.314 96.7214 266.543 96.7214Z" fill="#E1E9F4"/>
<path d="M170.527 166.003C171.52 165.011 173.126 165.011 174.119 166.003C175.112 166.996 175.112 168.603 174.119 169.596C173.126 170.589 171.52 170.589 170.527 169.596C169.538 168.607 169.538 166.996 170.527 166.003Z" fill="#E1E9F4"/>
<path d="M184.103 153.76C185.353 153.76 186.367 154.773 186.367 156.023C186.367 157.273 185.353 158.287 184.103 158.287C182.853 158.287 181.84 157.273 181.84 156.023C181.84 154.773 182.853 153.76 184.103 153.76Z" fill="#E1E9F4"/>
<path d="M194.509 142.873C195.268 142.115 196.495 142.115 197.254 142.873C198.012 143.631 198.012 144.859 197.254 145.617C196.495 146.376 195.268 146.376 194.509 145.617C193.751 144.863 193.751 143.631 194.509 142.873Z" fill="#E1E9F4"/>
<path d="M207.656 130.852C208.55 130.852 209.274 131.577 209.274 132.471C209.274 133.365 208.55 134.089 207.656 134.089C206.762 134.089 206.037 133.365 206.037 132.471C206.037 131.577 206.762 130.852 207.656 130.852Z" fill="#E1E9F4"/>
<path d="M218.488 119.746C219.012 119.223 219.86 119.223 220.384 119.746C220.908 120.27 220.908 121.118 220.384 121.642C219.86 122.166 219.012 122.166 218.488 121.642C217.964 121.114 217.964 120.266 218.488 119.746Z" fill="#E1E9F4"/>
<path d="M231.212 107.851C231.8 107.851 232.276 108.327 232.276 108.914C232.276 109.501 231.8 109.977 231.212 109.977C230.625 109.977 230.149 109.501 230.149 108.914C230.149 108.327 230.625 107.851 231.212 107.851Z" fill="#E1E9F4"/>
<path d="M242.467 96.6159C242.756 96.3267 243.225 96.3267 243.511 96.6159C243.8 96.9052 243.8 97.3744 243.511 97.6597C243.221 97.9451 242.752 97.949 242.467 97.6597C242.178 97.3705 242.178 96.9013 242.467 96.6159Z" fill="#E1E9F4"/>
<path d="M254.472 85.0645C254.636 84.9003 254.898 84.9003 255.058 85.0645C255.222 85.2287 255.222 85.4906 255.058 85.6509C254.894 85.8111 254.632 85.8111 254.472 85.6509C254.312 85.4906 254.312 85.2287 254.472 85.0645Z" fill="#E1E9F4"/>
<path d="M266.446 73.4852C266.501 73.4303 266.587 73.4303 266.642 73.4852C266.696 73.54 266.696 73.6262 266.642 73.681C266.587 73.7358 266.501 73.7358 266.446 73.681C266.391 73.6262 266.391 73.5361 266.446 73.4852Z" fill="#E1E9F4"/>
<path d="M146.743 165.777C147.861 164.659 149.675 164.659 150.793 165.777C151.911 166.895 151.911 168.708 150.793 169.826C149.675 170.944 147.861 170.944 146.743 169.826C145.625 168.708 145.625 166.895 146.743 165.777Z" fill="#E1E9F4"/>
<path d="M158.752 154.229C159.745 153.236 161.352 153.236 162.345 154.229C163.338 155.222 163.338 156.829 162.345 157.822C161.352 158.814 159.745 158.814 158.752 157.822C157.759 156.829 157.759 155.218 158.752 154.229Z" fill="#E1E9F4"/>
<path d="M170.726 142.646C171.61 141.763 173.044 141.763 173.928 142.646C174.811 143.53 174.811 144.964 173.928 145.848C173.044 146.731 171.61 146.731 170.726 145.848C169.843 144.964 169.843 143.53 170.726 142.646Z" fill="#E1E9F4"/>
<path d="M182.731 131.099C183.49 130.34 184.717 130.34 185.475 131.099C186.234 131.857 186.234 133.085 185.475 133.843C184.717 134.601 183.49 134.601 182.731 133.843C181.973 133.085 181.973 131.853 182.731 131.099Z" fill="#E1E9F4"/>
<path d="M194.736 119.547C195.365 118.914 196.39 118.914 197.023 119.547C197.652 120.176 197.652 121.201 197.023 121.834C196.394 122.463 195.369 122.463 194.736 121.834C194.107 121.205 194.107 120.18 194.736 119.547Z" fill="#E1E9F4"/>
<path d="M207.656 107.573C208.396 107.573 208.997 108.174 208.997 108.914C208.997 109.655 208.396 110.255 207.656 110.255C206.915 110.255 206.315 109.655 206.315 108.914C206.315 108.174 206.915 107.573 207.656 107.573Z" fill="#E1E9F4"/>
<path d="M219.434 96.0727C220.021 96.0727 220.497 96.5488 220.497 97.136C220.497 97.7232 220.021 98.1993 219.434 98.1993C218.847 98.1993 218.371 97.7232 218.371 97.136C218.371 96.5488 218.847 96.0727 219.434 96.0727Z" fill="#E1E9F4"/>
<path d="M230.689 84.8376C230.978 84.5483 231.447 84.5483 231.732 84.8376C232.022 85.1269 232.022 85.5959 231.732 85.8813C231.443 86.1706 230.978 86.1706 230.689 85.8813C230.399 85.592 230.399 85.1269 230.689 84.8376Z" fill="#E1E9F4"/>
<path d="M242.698 73.2901C242.862 73.1298 243.124 73.1298 243.284 73.2901C243.444 73.4543 243.444 73.7162 243.284 73.8765C243.12 74.0407 242.858 74.0407 242.698 73.8765C242.533 73.7123 242.533 73.4504 242.698 73.2901Z" fill="#E1E9F4"/>
<path d="M254.667 61.7067C254.722 61.6518 254.808 61.6518 254.863 61.7067C254.918 61.7615 254.918 61.8477 254.863 61.9025C254.808 61.9573 254.722 61.9573 254.667 61.9025C254.616 61.8477 254.616 61.7615 254.667 61.7067Z" fill="#E1E9F4"/>
<path d="M122.995 165.581C124.223 164.354 126.209 164.354 127.436 165.581C128.664 166.809 128.664 168.794 127.436 170.022C126.209 171.249 124.223 171.249 122.995 170.022C121.768 168.794 121.768 166.809 122.995 165.581Z" fill="#E1E9F4"/>
<path d="M134.969 153.998C136.087 152.88 137.901 152.88 139.019 153.998C140.137 155.116 140.137 156.93 139.019 158.048C137.901 159.166 136.087 159.166 134.969 158.048C133.851 156.93 133.851 155.116 134.969 153.998Z" fill="#E1E9F4"/>
<path d="M146.974 142.451C147.967 141.458 149.574 141.458 150.567 142.451C151.56 143.444 151.56 145.05 150.567 146.043C149.574 147.036 147.967 147.036 146.974 146.043C145.981 145.05 145.981 143.444 146.974 142.451Z" fill="#E1E9F4"/>
<path d="M160.547 130.207C161.797 130.207 162.81 131.221 162.81 132.471C162.81 133.721 161.797 134.734 160.547 134.734C159.297 134.734 158.283 133.721 158.283 132.471C158.283 131.221 159.297 130.207 160.547 130.207Z" fill="#E1E9F4"/>
<path d="M170.953 119.32C171.711 118.562 172.939 118.562 173.697 119.32C174.456 120.079 174.456 121.306 173.697 122.065C172.939 122.823 171.711 122.823 170.953 122.065C170.195 121.306 170.195 120.079 170.953 119.32Z" fill="#E1E9F4"/>
<path d="M184.103 107.296C184.997 107.296 185.722 108.02 185.722 108.914C185.722 109.808 184.997 110.533 184.103 110.533C183.209 110.533 182.485 109.808 182.485 108.914C182.485 108.02 183.209 107.296 184.103 107.296Z" fill="#E1E9F4"/>
<path d="M194.932 96.1899C195.455 95.6661 196.304 95.6661 196.828 96.1899C197.351 96.7137 197.351 97.5619 196.828 98.0858C196.304 98.6096 195.455 98.6096 194.932 98.0858C194.408 97.5619 194.408 96.7137 194.932 96.1899Z" fill="#E1E9F4"/>
<path d="M207.656 84.2942C208.243 84.2942 208.719 84.7703 208.719 85.3576C208.719 85.9448 208.243 86.4208 207.656 86.4208C207.069 86.4208 206.593 85.9448 206.593 85.3576C206.593 84.7703 207.069 84.2942 207.656 84.2942Z" fill="#E1E9F4"/>
<path d="M218.91 73.0594C219.2 72.7701 219.665 72.7701 219.954 73.0594C220.243 73.3486 220.243 73.8178 219.954 74.1032C219.665 74.3924 219.196 74.3924 218.91 74.1032C218.625 73.8178 218.625 73.3486 218.91 73.0594Z" fill="#E1E9F4"/>
<path d="M230.919 61.5118C231.083 61.3476 231.345 61.3476 231.506 61.5118C231.666 61.676 231.67 61.9379 231.506 62.0982C231.341 62.2624 231.079 62.2624 230.919 62.0982C230.755 61.9379 230.755 61.6721 230.919 61.5118Z" fill="#E1E9F4"/>
<path d="M242.893 49.9285C242.948 49.8737 243.034 49.8737 243.089 49.9285C243.144 49.9834 243.144 50.0695 243.089 50.1243C243.034 50.1792 242.948 50.1792 242.893 50.1243C242.838 50.0695 242.838 49.9834 242.893 49.9285Z" fill="#E1E9F4"/>
<path d="M99.2121 165.351C100.565 163.998 102.758 163.998 104.11 165.351C105.463 166.703 105.463 168.896 104.11 170.249C102.758 171.601 100.565 171.601 99.2121 170.249C97.8596 168.896 97.8596 166.703 99.2121 165.351Z" fill="#E1E9F4"/>
<path d="M111.217 153.803C112.445 152.575 114.43 152.575 115.658 153.803C116.885 155.03 116.885 157.016 115.658 158.244C114.43 159.471 112.445 159.471 111.217 158.244C109.99 157.02 109.99 155.03 111.217 153.803Z" fill="#E1E9F4"/>
<path d="M123.191 142.22C124.309 141.102 126.123 141.102 127.241 142.22C128.359 143.338 128.359 145.152 127.241 146.27C126.123 147.388 124.309 147.388 123.191 146.27C122.073 145.152 122.073 143.338 123.191 142.22Z" fill="#E1E9F4"/>
<path d="M135.196 130.673C136.189 129.68 137.795 129.68 138.788 130.673C139.781 131.666 139.781 133.272 138.788 134.265C137.795 135.258 136.189 135.258 135.196 134.265C134.203 133.272 134.203 131.666 135.196 130.673Z" fill="#E1E9F4"/>
<path d="M147.17 119.09C148.053 118.206 149.488 118.206 150.371 119.09C151.255 119.973 151.255 121.408 150.371 122.291C149.488 123.175 148.053 123.175 147.17 122.291C146.286 121.408 146.286 119.977 147.17 119.09Z" fill="#E1E9F4"/>
<path d="M159.175 107.542C159.933 106.784 161.16 106.784 161.919 107.542C162.677 108.3 162.677 109.528 161.919 110.286C161.16 111.045 159.933 111.045 159.175 110.286C158.42 109.528 158.42 108.3 159.175 107.542Z" fill="#E1E9F4"/>
<path d="M172.325 95.5176C173.219 95.5176 173.943 96.2421 173.943 97.1359C173.943 98.0297 173.219 98.7543 172.325 98.7543C171.431 98.7543 170.707 98.0297 170.707 97.1359C170.707 96.2421 171.431 95.5176 172.325 95.5176Z" fill="#E1E9F4"/>
<path d="M183.157 84.4117C183.681 83.8878 184.529 83.8878 185.053 84.4117C185.577 84.9355 185.577 85.7838 185.053 86.3076C184.529 86.8315 183.681 86.8315 183.157 86.3076C182.633 85.7838 182.633 84.9355 183.157 84.4117Z" fill="#E1E9F4"/>
<path d="M195.882 72.5201C196.469 72.5201 196.945 72.9961 196.945 73.5833C196.945 74.1706 196.469 74.6466 195.882 74.6466C195.294 74.6466 194.818 74.1706 194.818 73.5833C194.818 72.9961 195.294 72.5201 195.882 72.5201Z" fill="#E1E9F4"/>
<path d="M207.136 61.2811C207.425 60.9919 207.894 60.9919 208.18 61.2811C208.469 61.5704 208.469 62.0395 208.18 62.3249C207.89 62.6141 207.421 62.6141 207.136 62.3249C206.847 62.0395 206.847 61.5704 207.136 61.2811Z" fill="#E1E9F4"/>
<path d="M219.141 49.7335C219.305 49.5694 219.567 49.5694 219.727 49.7335C219.891 49.8938 219.891 50.1596 219.727 50.3199C219.563 50.4841 219.301 50.4841 219.141 50.3199C218.977 50.1596 218.977 49.8938 219.141 49.7335Z" fill="#E1E9F4"/>
<path d="M231.213 38.1111C231.288 38.1111 231.35 38.1725 231.35 38.2482C231.35 38.3239 231.288 38.3852 231.213 38.3852C231.137 38.3852 231.076 38.3239 231.076 38.2482C231.076 38.1725 231.137 38.1111 231.213 38.1111Z" fill="#E1E9F4"/>
<path d="M78.1066 164.061C80.1728 164.061 81.8477 165.735 81.8477 167.802C81.8477 169.868 80.1728 171.543 78.1066 171.543C76.0405 171.543 74.3656 169.868 74.3656 167.802C74.3656 165.735 76.0405 164.061 78.1066 164.061Z" fill="#E1E9F4"/>
<path d="M89.8849 152.56C91.7978 152.56 93.3484 154.11 93.3484 156.023C93.3484 157.936 91.7978 159.487 89.8849 159.487C87.9721 159.487 86.4214 157.936 86.4214 156.023C86.4214 154.11 87.9721 152.56 89.8849 152.56Z" fill="#E1E9F4"/>
<path d="M99.4389 142.024C100.666 140.797 102.652 140.797 103.88 142.024C105.107 143.252 105.107 145.238 103.88 146.465C102.652 147.693 100.666 147.693 99.4389 146.465C98.2114 145.242 98.2114 143.252 99.4389 142.024Z" fill="#E1E9F4"/>
<path d="M111.413 130.446C112.531 129.328 114.345 129.328 115.463 130.446C116.581 131.564 116.581 133.378 115.463 134.496C114.345 135.614 112.531 135.614 111.413 134.496C110.295 133.378 110.295 131.564 111.413 130.446Z" fill="#E1E9F4"/>
<path d="M123.418 118.894C124.41 117.901 126.017 117.901 127.01 118.894C128.003 119.887 128.003 121.494 127.01 122.487C126.017 123.48 124.41 123.48 123.418 122.487C122.429 121.498 122.429 119.887 123.418 118.894Z" fill="#E1E9F4"/>
<path d="M135.391 107.315C136.275 106.432 137.709 106.432 138.593 107.315C139.476 108.199 139.476 109.633 138.593 110.517C137.709 111.4 136.275 111.4 135.391 110.517C134.508 109.63 134.508 108.199 135.391 107.315Z" fill="#E1E9F4"/>
<path d="M147.4 95.7638C148.159 95.0055 149.386 95.0055 150.144 95.7638C150.903 96.5222 150.903 97.7497 150.144 98.5081C149.386 99.2664 148.159 99.2664 147.4 98.5081C146.642 97.7497 146.642 96.5222 147.4 95.7638Z" fill="#E1E9F4"/>
<path d="M159.405 84.2161C160.035 83.5828 161.059 83.5828 161.692 84.2161C162.321 84.8455 162.321 85.8697 161.692 86.503C161.059 87.1324 160.039 87.1324 159.405 86.503C158.772 85.8697 158.772 84.8494 159.405 84.2161Z" fill="#E1E9F4"/>
<path d="M171.379 72.6333C171.903 72.1095 172.751 72.1095 173.275 72.6333C173.799 73.1571 173.799 74.0054 173.275 74.5292C172.751 75.053 171.903 75.053 171.379 74.5292C170.855 74.0054 170.855 73.1571 171.379 72.6333Z" fill="#E1E9F4"/>
<path d="M184.103 60.7416C184.691 60.7416 185.167 61.2178 185.167 61.805C185.167 62.3922 184.691 62.8683 184.103 62.8683C183.516 62.8683 183.04 62.3922 183.04 61.805C183.04 61.2178 183.516 60.7416 184.103 60.7416Z" fill="#E1E9F4"/>
<path d="M195.358 49.5027C195.647 49.2134 196.112 49.2134 196.401 49.5027C196.691 49.792 196.691 50.2612 196.401 50.5465C196.112 50.8358 195.647 50.8358 195.358 50.5465C195.068 50.2612 195.068 49.792 195.358 49.5027Z" fill="#E1E9F4"/>
<path d="M207.363 37.9553C207.523 37.7912 207.789 37.7912 207.949 37.9553C208.113 38.1195 208.113 38.3814 207.949 38.5417C207.789 38.7059 207.523 38.7059 207.363 38.5417C207.202 38.3814 207.202 38.1195 207.363 37.9553Z" fill="#E1E9F4"/>
<path d="M219.336 26.3759C219.391 26.321 219.477 26.321 219.532 26.3759C219.587 26.4307 219.587 26.5168 219.532 26.5717C219.477 26.6265 219.391 26.6265 219.336 26.5717C219.282 26.5168 219.282 26.4268 219.336 26.3759Z" fill="#E1E9F4"/>
<path d="M54.5501 163.736C56.7954 163.736 58.6156 165.556 58.6156 167.802C58.6156 170.047 56.7954 171.867 54.5501 171.867C52.3048 171.867 50.4846 170.047 50.4846 167.802C50.4846 165.556 52.3048 163.736 54.5501 163.736Z" fill="#E1E9F4"/>
<path d="M66.3283 152.282C68.3944 152.282 70.0694 153.957 70.0694 156.023C70.0694 158.089 68.3944 159.764 66.3283 159.764C64.2622 159.764 62.5873 158.089 62.5873 156.023C62.5873 153.957 64.2622 152.282 66.3283 152.282Z" fill="#E1E9F4"/>
<path d="M75.6556 141.798C77.0082 140.445 79.2012 140.445 80.5538 141.798C81.9063 143.15 81.9063 145.343 80.5538 146.696C79.2012 148.049 77.0082 148.049 75.6556 146.696C74.303 145.343 74.303 143.15 75.6556 141.798Z" fill="#E1E9F4"/>
<path d="M87.6606 130.25C88.8881 129.023 90.8739 129.023 92.1014 130.25C93.3289 131.478 93.3289 133.464 92.1014 134.691C90.8739 135.919 88.8881 135.919 87.6606 134.691C86.4371 133.464 86.4371 131.474 87.6606 130.25Z" fill="#E1E9F4"/>
<path d="M99.6343 118.668C100.752 117.549 102.566 117.549 103.684 118.668C104.802 119.786 104.802 121.599 103.684 122.717C102.566 123.835 100.752 123.835 99.6343 122.717C98.5163 121.599 98.5163 119.786 99.6343 118.668Z" fill="#E1E9F4"/>
<path d="M111.643 107.12C112.636 106.127 114.243 106.127 115.236 107.12C116.229 108.113 116.229 109.719 115.236 110.712C114.243 111.705 112.636 111.705 111.643 110.712C110.65 109.719 110.65 108.109 111.643 107.12Z" fill="#E1E9F4"/>
<path d="M123.617 95.5371C124.5 94.6536 125.935 94.6536 126.819 95.5371C127.702 96.4206 127.702 97.8553 126.819 98.7388C125.935 99.6222 124.5 99.6222 123.617 98.7388C122.73 97.8553 122.73 96.4206 123.617 95.5371Z" fill="#E1E9F4"/>
<path d="M135.622 83.9895C136.38 83.2311 137.608 83.2311 138.366 83.9895C139.125 84.7479 139.125 85.9753 138.366 86.7336C137.608 87.492 136.38 87.492 135.622 86.7336C134.864 85.9753 134.864 84.744 135.622 83.9895Z" fill="#E1E9F4"/>
<path d="M148.768 71.965C149.662 71.965 150.387 72.6896 150.387 73.5834C150.387 74.4772 149.662 75.2017 148.768 75.2017C147.875 75.2017 147.15 74.4772 147.15 73.5834C147.15 72.6896 147.875 71.965 148.768 71.965Z" fill="#E1E9F4"/>
<path d="M159.601 60.8589C160.125 60.3351 160.973 60.3351 161.497 60.8589C162.02 61.3827 162.02 62.2311 161.497 62.7549C160.973 63.2787 160.125 63.2787 159.601 62.7549C159.077 62.2272 159.077 61.3788 159.601 60.8589Z" fill="#E1E9F4"/>
<path d="M172.325 48.9634C172.912 48.9634 173.388 49.4395 173.388 50.0267C173.388 50.6139 172.912 51.09 172.325 51.09C171.738 51.09 171.262 50.6139 171.262 50.0267C171.262 49.4395 171.738 48.9634 172.325 48.9634Z" fill="#E1E9F4"/>
<path d="M183.579 37.7286C183.869 37.4393 184.338 37.4393 184.623 37.7286C184.912 38.0179 184.912 38.483 184.623 38.7723C184.334 39.0616 183.865 39.0616 183.579 38.7723C183.29 38.483 183.29 38.0179 183.579 37.7286Z" fill="#E1E9F4"/>
<path d="M195.584 26.177C195.749 26.0128 196.01 26.0128 196.171 26.177C196.335 26.3412 196.335 26.6031 196.171 26.7634C196.007 26.9237 195.745 26.9237 195.584 26.7634C195.424 26.6031 195.424 26.3412 195.584 26.177Z" fill="#E1E9F4"/>
<path d="M207.558 14.5976C207.613 14.5428 207.699 14.5428 207.754 14.5976C207.809 14.6524 207.809 14.7386 207.754 14.7934C207.699 14.8482 207.613 14.8482 207.558 14.7934C207.503 14.7386 207.503 14.6524 207.558 14.5976Z" fill="#E1E9F4"/>
<path d="M30.9975 163.458C33.3961 163.458 35.3405 165.403 35.3405 167.802C35.3405 170.2 33.3961 172.145 30.9975 172.145C28.5989 172.145 26.6544 170.2 26.6544 167.802C26.6544 165.403 28.5989 163.458 30.9975 163.458Z" fill="#E1E9F4"/>
<path d="M39.8986 153.15C41.4857 151.563 44.0579 151.563 45.645 153.15C47.2321 154.737 47.2321 157.309 45.645 158.896C44.0579 160.484 41.4857 160.484 39.8986 158.896C38.3115 157.309 38.3115 154.737 39.8986 153.15Z" fill="#E1E9F4"/>
<path d="M51.9036 141.603C53.3656 140.141 55.7346 140.141 57.1927 141.603C58.6547 143.065 58.6547 145.434 57.1927 146.892C55.7307 148.354 53.3617 148.354 51.9036 146.892C50.4455 145.43 50.4455 143.061 51.9036 141.603Z" fill="#E1E9F4"/>
<path d="M63.8773 130.02C65.2299 128.667 67.4229 128.667 68.7755 130.02C70.128 131.372 70.128 133.565 68.7755 134.918C67.4229 136.27 65.2299 136.27 63.8773 134.918C62.5247 133.565 62.5247 131.372 63.8773 130.02Z" fill="#E1E9F4"/>
<path d="M75.8862 118.472C77.1137 117.245 79.0995 117.245 80.327 118.472C81.5545 119.7 81.5545 121.685 80.327 122.913C79.0995 124.14 77.1137 124.14 75.8862 122.913C74.6588 121.685 74.6588 119.696 75.8862 118.472Z" fill="#E1E9F4"/>
<path d="M87.8599 106.889C88.978 105.771 90.7918 105.771 91.9098 106.889C93.0278 108.007 93.0278 109.821 91.9098 110.939C90.7918 112.057 88.978 112.057 87.8599 110.939C86.738 109.821 86.738 108.007 87.8599 106.889Z" fill="#E1E9F4"/>
<path d="M99.865 95.3416C100.858 94.3487 102.465 94.3487 103.457 95.3416C104.45 96.3345 104.45 97.9413 103.457 98.9342C102.465 99.9271 100.858 99.9271 99.865 98.9342C98.872 97.9413 98.872 96.3345 99.865 95.3416Z" fill="#E1E9F4"/>
<path d="M111.839 83.7587C112.722 82.8752 114.157 82.8752 115.04 83.7587C115.924 84.6422 115.924 86.0768 115.04 86.9603C114.157 87.8437 112.722 87.8437 111.839 86.9603C110.955 86.0768 110.955 84.6422 111.839 83.7587Z" fill="#E1E9F4"/>
<path d="M123.844 72.2113C124.602 71.4529 125.83 71.4529 126.588 72.2113C127.346 72.9697 127.346 74.1971 126.588 74.9555C125.83 75.7139 124.602 75.7139 123.844 74.9555C123.085 74.1971 123.085 72.9697 123.844 72.2113Z" fill="#E1E9F4"/>
<path d="M135.849 60.6634C136.478 60.0341 137.502 60.0341 138.136 60.6634C138.765 61.2928 138.765 62.3171 138.136 62.9503C137.506 63.5797 136.482 63.5797 135.849 62.9503C135.215 62.321 135.219 61.2928 135.849 60.6634Z" fill="#E1E9F4"/>
<path d="M147.822 49.0808C148.346 48.5569 149.195 48.5569 149.718 49.0808C150.242 49.6046 150.242 50.4528 149.718 50.9766C149.195 51.5005 148.346 51.5005 147.822 50.9766C147.299 50.4528 147.299 49.6046 147.822 49.0808Z" fill="#E1E9F4"/>
<path d="M160.547 37.1852C161.134 37.1852 161.61 37.6613 161.61 38.2486C161.61 38.8358 161.134 39.3118 160.547 39.3118C159.959 39.3118 159.483 38.8358 159.483 38.2486C159.483 37.6613 159.959 37.1852 160.547 37.1852Z" fill="#E1E9F4"/>
<path d="M171.801 25.95C172.09 25.6608 172.559 25.6608 172.845 25.95C173.134 26.2393 173.134 26.7085 172.845 26.9939C172.556 27.2831 172.09 27.2831 171.801 26.9939C171.512 26.7046 171.512 26.2393 171.801 25.95Z" fill="#E1E9F4"/>
<path d="M183.81 14.4027C183.974 14.2424 184.236 14.2424 184.396 14.4027C184.561 14.5669 184.561 14.8288 184.396 14.989C184.236 15.1532 183.97 15.1532 183.81 14.989C183.646 14.8249 183.646 14.5629 183.81 14.4027Z" fill="#E1E9F4"/>
<path d="M195.882 2.78025C195.957 2.78025 196.019 2.84157 196.019 2.91727C196.019 2.99297 195.957 3.05438 195.882 3.05438C195.806 3.05438 195.745 2.99297 195.745 2.91727C195.745 2.84157 195.806 2.78025 195.882 2.78025Z" fill="#E1E9F4"/>
<path d="M7.44095 163.138C10.0166 163.138 12.1046 165.226 12.1046 167.801C12.1046 170.377 10.0166 172.465 7.44095 172.465C4.8653 172.465 2.77733 170.377 2.77733 167.801C2.77733 165.226 4.8653 163.138 7.44095 163.138Z" fill="#E1E9F4"/>
<path d="M19.2192 151.68C21.6178 151.68 23.5622 153.625 23.5622 156.023C23.5622 158.422 21.6178 160.366 19.2192 160.366C16.8206 160.366 14.8761 158.422 14.8761 156.023C14.8761 153.625 16.8206 151.68 19.2192 151.68Z" fill="#E1E9F4"/>
<path d="M28.1203 141.372C29.7075 139.785 32.2797 139.785 33.8668 141.372C35.4539 142.959 35.4539 145.531 33.8668 147.118C32.2797 148.705 29.7075 148.705 28.1203 147.118C26.5332 145.535 26.5332 142.959 28.1203 141.372Z" fill="#E1E9F4"/>
<path d="M40.1292 129.824C41.5912 128.362 43.9602 128.362 45.4183 129.824C46.8803 131.286 46.8803 133.655 45.4183 135.113C43.9563 136.575 41.5873 136.575 40.1292 135.113C38.6672 133.655 38.6672 131.286 40.1292 129.824Z" fill="#E1E9F4"/>
<path d="M54.5501 117.229C56.4629 117.229 58.0136 118.78 58.0136 120.692C58.0136 122.605 56.4629 124.156 54.5501 124.156C52.6373 124.156 51.0866 122.605 51.0866 120.692C51.0866 118.78 52.6373 117.229 54.5501 117.229Z" fill="#E1E9F4"/>
<path d="M64.1079 106.694C65.3354 105.466 67.3212 105.466 68.5487 106.694C69.7762 107.921 69.7762 109.907 68.5487 111.135C67.3212 112.362 65.3354 112.362 64.1079 111.135C62.8804 109.907 62.8804 107.921 64.1079 106.694Z" fill="#E1E9F4"/>
<path d="M76.0817 95.1111C77.1997 93.993 79.0136 93.993 80.1316 95.1111C81.2496 96.2291 81.2496 98.0429 80.1316 99.1609C79.0136 100.279 77.1997 100.279 76.0817 99.1609C74.9637 98.0429 74.9637 96.2291 76.0817 95.1111Z" fill="#E1E9F4"/>
<path d="M89.8849 82.8206C91.2883 82.8206 92.4259 83.9583 92.4259 85.3616C92.4259 86.7649 91.2883 87.9025 89.8849 87.9025C88.4816 87.9025 87.344 86.7649 87.344 85.3616C87.344 83.9583 88.4816 82.8206 89.8849 82.8206Z" fill="#E1E9F4"/>
<path d="M100.06 71.9805C100.944 71.097 102.379 71.097 103.262 71.9805C104.145 72.8639 104.145 74.2987 103.262 75.1821C102.379 76.0656 100.944 76.0656 100.06 75.1821C99.177 74.2987 99.177 72.8639 100.06 71.9805Z" fill="#E1E9F4"/>
<path d="M112.065 60.433C112.824 59.6746 114.051 59.6746 114.81 60.433C115.568 61.1913 115.568 62.4188 114.81 63.1772C114.051 63.9356 112.824 63.9356 112.065 63.1772C111.307 62.4188 111.307 61.1913 112.065 60.433Z" fill="#E1E9F4"/>
<path d="M124.074 48.8853C124.704 48.2559 125.728 48.2559 126.361 48.8853C126.991 49.5186 126.991 50.5388 126.361 51.1721C125.728 51.8054 124.708 51.8054 124.074 51.1721C123.441 50.5388 123.441 49.5146 124.074 48.8853Z" fill="#E1E9F4"/>
<path d="M136.044 37.3023C136.568 36.7785 137.416 36.7785 137.94 37.3023C138.464 37.8262 138.464 38.6745 137.94 39.1983C137.416 39.7221 136.568 39.7221 136.044 39.1983C135.524 38.6745 135.524 37.8262 136.044 37.3023Z" fill="#E1E9F4"/>
<path d="M148.768 25.4107C149.356 25.4107 149.832 25.8868 149.832 26.474C149.832 27.0613 149.356 27.5373 148.768 27.5373C148.181 27.5373 147.705 27.0613 147.705 26.474C147.705 25.8868 148.181 25.4107 148.768 25.4107Z" fill="#E1E9F4"/>
<path d="M160.027 14.1719C160.316 13.8827 160.781 13.8827 161.071 14.1719C161.36 14.4612 161.36 14.9303 161.071 15.2157C160.781 15.5049 160.312 15.5049 160.027 15.2157C159.738 14.9303 159.738 14.4612 160.027 14.1719Z" fill="#E1E9F4"/>
<path d="M172.032 2.62435C172.196 2.46017 172.458 2.46017 172.618 2.62435C172.782 2.78854 172.782 3.05045 172.618 3.21073C172.454 3.371 172.192 3.371 172.032 3.21073C171.868 3.05045 171.868 2.78463 172.032 2.62435Z" fill="#E1E9F4"/>
</g>
<defs>
<clipPath id="clip0_182_781">
<rect width="275" height="174" fill="white" transform="matrix(1 0 0 -1 0 174)"/>
</clipPath>
</defs>
</svg>
