<svg width="479" height="140" viewBox="0 0 479 140" fill="none" xmlns="http://www.w3.org/2000/svg">
<path d="M107.344 3.31522C106.429 3.31522 105.688 2.57311 105.688 1.65767C105.688 0.742235 106.429 0.00012207 107.344 0.00012207C108.259 0.00012207 109 0.742235 109 1.65767C109 2.57311 108.259 3.31522 107.344 3.31522Z" fill="#DF0A0A"/>
<path d="M88.0872 1.65774C88.0872 2.57555 88.8263 3.31528 89.7432 3.31528C90.6602 3.31528 91.3993 2.57555 91.3993 1.65774C91.3993 0.739922 90.6602 0.000187224 89.7432 0.000187224C88.8263 -0.0135115 88.0872 0.726224 88.0872 1.65774Z" fill="#DF0A0A"/>
<path d="M70.5003 1.65774C70.5003 2.57555 71.2393 3.31528 72.1563 3.31528C73.0733 3.31528 73.8124 2.57555 73.8124 1.65774C73.8124 0.739922 73.0733 0.000187224 72.1563 0.000187224C71.2393 -0.0135115 70.5003 0.726224 70.5003 1.65774Z" fill="#DF0A0A"/>
<path d="M54.5693 3.31522C53.6547 3.31522 52.9132 2.57311 52.9132 1.65767C52.9132 0.742235 53.6547 0.00012207 54.5693 0.00012207C55.4839 0.00012207 56.2253 0.742235 56.2253 1.65767C56.2253 2.57311 55.4839 3.31522 54.5693 3.31522Z" fill="#DF0A0A"/>
<path d="M36.9823 3.31522C36.0677 3.31522 35.3262 2.57311 35.3262 1.65767C35.3262 0.742235 36.0677 0.00012207 36.9823 0.00012207C37.8969 0.00012207 38.6383 0.742235 38.6383 1.65767C38.6383 2.57311 37.8969 3.31522 36.9823 3.31522Z" fill="#DF0A0A"/>
<path d="M17.7255 1.65774C17.7255 2.57555 18.4646 3.31528 19.3816 3.31528C20.2985 3.31528 21.0376 2.57555 21.0376 1.65774C21.0376 0.739922 20.2985 0.000187224 19.3816 0.000187224C18.4783 -0.0135115 17.7255 0.726224 17.7255 1.65774Z" fill="#DF0A0A"/>
<path d="M1.80832 3.31522C0.893703 3.31522 0.152254 2.57311 0.152254 1.65767C0.152254 0.742235 0.893703 0.00012207 1.80832 0.00012207C2.72293 0.00012207 3.46436 0.742235 3.46436 1.65767C3.46436 2.57311 2.72293 3.31522 1.80832 3.31522Z" fill="#DF0A0A"/>
<path d="M105.674 21.1372C105.674 22.055 106.413 22.7948 107.33 22.7948C108.247 22.7948 108.986 22.055 108.986 21.1372C108.986 20.2194 108.247 19.4797 107.33 19.4797C106.427 19.466 105.674 20.2194 105.674 21.1372Z" fill="#DF0A0A"/>
<path d="M88.0872 21.1372C88.0872 22.055 88.8263 22.7948 89.7432 22.7948C90.6602 22.7948 91.3993 22.055 91.3993 21.1372C91.3993 20.2194 90.6602 19.4797 89.7432 19.4797C88.8263 19.466 88.0872 20.2194 88.0872 21.1372Z" fill="#DF0A0A"/>
<path d="M70.5003 21.1372C70.5003 22.055 71.2393 22.7948 72.1563 22.7948C73.0733 22.7948 73.8124 22.055 73.8124 21.1372C73.8124 20.2194 73.0733 19.4797 72.1563 19.4797C71.2393 19.466 70.5003 20.2194 70.5003 21.1372Z" fill="#DF0A0A"/>
<path d="M52.9132 21.1374C52.9132 22.0552 53.6523 22.7949 54.5693 22.7949C55.4863 22.7949 56.2253 22.0552 56.2253 21.1374C56.2253 20.2196 55.4863 19.4799 54.5693 19.4799C53.6523 19.4799 52.9132 20.2196 52.9132 21.1374Z" fill="#DF0A0A"/>
<path d="M35.3262 21.1374C35.3262 22.0552 36.0653 22.7949 36.9823 22.7949C37.8993 22.7949 38.6383 22.0552 38.6383 21.1374C38.6383 20.2196 37.8993 19.4799 36.9823 19.4799C36.0653 19.4799 35.3262 20.2196 35.3262 21.1374Z" fill="#DF0A0A"/>
<path d="M17.7255 21.1372C17.7255 22.055 18.4646 22.7948 19.3816 22.7948C20.2985 22.7948 21.0376 22.055 21.0376 21.1372C21.0376 20.2194 20.2985 19.4797 19.3816 19.4797C18.4783 19.466 17.7255 20.2194 17.7255 21.1372Z" fill="#DF0A0A"/>
<path d="M0.138582 21.1372C0.138582 22.055 0.877635 22.7948 1.79462 22.7948C2.71161 22.7948 3.45068 22.055 3.45068 21.1372C3.45068 20.2194 2.71161 19.4797 1.79462 19.4797C0.891321 19.466 0.138582 20.2194 0.138582 21.1372Z" fill="#DF0A0A"/>
<path d="M107.344 42.2745C106.429 42.2745 105.688 41.5323 105.688 40.6169C105.688 39.7015 106.429 38.9594 107.344 38.9594C108.259 38.9594 109 39.7015 109 40.6169C109 41.5323 108.259 42.2745 107.344 42.2745Z" fill="#DF0A0A"/>
<path d="M88.0872 40.617C88.0872 41.5348 88.8263 42.2745 89.7432 42.2745C90.6602 42.2745 91.3993 41.5348 91.3993 40.617C91.3993 39.6992 90.6602 38.9594 89.7432 38.9594C88.8263 38.9457 88.0872 39.6992 88.0872 40.617Z" fill="#DF0A0A"/>
<path d="M70.5003 40.617C70.5003 41.5348 71.2393 42.2745 72.1563 42.2745C73.0733 42.2745 73.8124 41.5348 73.8124 40.617C73.8124 39.6992 73.0733 38.9594 72.1563 38.9594C71.2393 38.9457 70.5003 39.6992 70.5003 40.617Z" fill="#DF0A0A"/>
<path d="M54.5693 42.2745C53.6547 42.2745 52.9132 41.5323 52.9132 40.6169C52.9132 39.7015 53.6547 38.9594 54.5693 38.9594C55.4839 38.9594 56.2253 39.7015 56.2253 40.6169C56.2253 41.5323 55.4839 42.2745 54.5693 42.2745Z" fill="#DF0A0A"/>
<path d="M36.9823 42.2745C36.0677 42.2745 35.3262 41.5323 35.3262 40.6169C35.3262 39.7015 36.0677 38.9594 36.9823 38.9594C37.8969 38.9594 38.6383 39.7015 38.6383 40.6169C38.6383 41.5323 37.8969 42.2745 36.9823 42.2745Z" fill="#DF0A0A"/>
<path d="M17.7255 40.617C17.7255 41.5348 18.4646 42.2745 19.3816 42.2745C20.2985 42.2745 21.0376 41.5348 21.0376 40.617C21.0376 39.6992 20.2985 38.9594 19.3816 38.9594C18.4783 38.9457 17.7255 39.6992 17.7255 40.617Z" fill="#DF0A0A"/>
<path d="M1.80832 42.2745C0.893703 42.2745 0.152254 41.5323 0.152254 40.6169C0.152254 39.7015 0.893703 38.9594 1.80832 38.9594C2.72293 38.9594 3.46436 39.7015 3.46436 40.6169C3.46436 41.5323 2.72293 42.2745 1.80832 42.2745Z" fill="#DF0A0A"/>
<path d="M105.674 60.0964C105.674 61.0143 106.413 61.754 107.33 61.754C108.247 61.754 108.986 61.0143 108.986 60.0964C108.986 59.1786 108.247 58.4389 107.33 58.4389C106.427 58.4252 105.674 59.1786 105.674 60.0964Z" fill="#DF0A0A"/>
<path d="M88.0872 60.0964C88.0872 61.0143 88.8263 61.754 89.7432 61.754C90.6602 61.754 91.3993 61.0143 91.3993 60.0964C91.3993 59.1786 90.6602 58.4389 89.7432 58.4389C88.8263 58.4252 88.0872 59.1786 88.0872 60.0964Z" fill="#DF0A0A"/>
<path d="M70.5003 60.0964C70.5003 61.0143 71.2393 61.754 72.1563 61.754C73.0733 61.754 73.8124 61.0143 73.8124 60.0964C73.8124 59.1786 73.0733 58.4389 72.1563 58.4389C71.2393 58.4252 70.5003 59.1786 70.5003 60.0964Z" fill="#DF0A0A"/>
<path d="M52.9132 60.0965C52.9132 61.0143 53.6523 61.7541 54.5693 61.7541C55.4863 61.7541 56.2253 61.0143 56.2253 60.0965C56.2253 59.1787 55.4863 58.439 54.5693 58.439C53.6523 58.439 52.9132 59.1787 52.9132 60.0965Z" fill="#DF0A0A"/>
<path d="M35.3262 60.0965C35.3262 61.0143 36.0653 61.7541 36.9823 61.7541C37.8993 61.7541 38.6383 61.0143 38.6383 60.0965C38.6383 59.1787 37.8993 58.439 36.9823 58.439C36.0653 58.439 35.3262 59.1787 35.3262 60.0965Z" fill="#DF0A0A"/>
<path d="M17.7255 60.0964C17.7255 61.0143 18.4646 61.754 19.3816 61.754C20.2985 61.754 21.0376 61.0143 21.0376 60.0964C21.0376 59.1786 20.2985 58.4389 19.3816 58.4389C18.4783 58.4252 17.7255 59.1786 17.7255 60.0964Z" fill="#DF0A0A"/>
<path d="M0.138582 60.0964C0.138582 61.0143 0.877635 61.754 1.79462 61.754C2.71161 61.754 3.45068 61.0143 3.45068 60.0964C3.45068 59.1786 2.71161 58.4389 1.79462 58.4389C0.891321 58.4252 0.138582 59.1786 0.138582 60.0964Z" fill="#DF0A0A"/>
<path d="M107.344 81.2337C106.429 81.2337 105.688 80.4916 105.688 79.5761C105.688 78.6607 106.429 77.9186 107.344 77.9186C108.259 77.9186 109 78.6607 109 79.5761C109 80.4916 108.259 81.2337 107.344 81.2337Z" fill="#DF0A0A"/>
<path d="M88.0872 79.5761C88.0872 80.4939 88.8263 81.2337 89.7432 81.2337C90.6602 81.2337 91.3993 80.4939 91.3993 79.5761C91.3993 78.6583 90.6602 77.9186 89.7432 77.9186C88.8263 77.9186 88.0872 78.6583 88.0872 79.5761Z" fill="#DF0A0A"/>
<path d="M70.5003 79.5761C70.5003 80.4939 71.2393 81.2337 72.1563 81.2337C73.0733 81.2337 73.8124 80.4939 73.8124 79.5761C73.8124 78.6583 73.0733 77.9186 72.1563 77.9186C71.2393 77.9186 70.5003 78.6583 70.5003 79.5761Z" fill="#DF0A0A"/>
<path d="M54.5693 81.2337C53.6547 81.2337 52.9132 80.4916 52.9132 79.5761C52.9132 78.6607 53.6547 77.9186 54.5693 77.9186C55.4839 77.9186 56.2253 78.6607 56.2253 79.5761C56.2253 80.4916 55.4839 81.2337 54.5693 81.2337Z" fill="#DF0A0A"/>
<path d="M36.9823 81.2337C36.0677 81.2337 35.3262 80.4916 35.3262 79.5761C35.3262 78.6607 36.0677 77.9186 36.9823 77.9186C37.8969 77.9186 38.6383 78.6607 38.6383 79.5761C38.6383 80.4916 37.8969 81.2337 36.9823 81.2337Z" fill="#DF0A0A"/>
<path d="M17.7255 79.5761C17.7255 80.4939 18.4646 81.2337 19.3816 81.2337C20.2985 81.2337 21.0376 80.4939 21.0376 79.5761C21.0376 78.6583 20.2985 77.9186 19.3816 77.9186C18.4783 77.9186 17.7255 78.6583 17.7255 79.5761Z" fill="#DF0A0A"/>
<path d="M1.80832 81.2337C0.893703 81.2337 0.152254 80.4916 0.152254 79.5761C0.152254 78.6607 0.893703 77.9186 1.80832 77.9186C2.72293 77.9186 3.46436 78.6607 3.46436 79.5761C3.46436 80.4916 2.72293 81.2337 1.80832 81.2337Z" fill="#DF0A0A"/>
<path d="M107.344 100.713C106.429 100.713 105.688 99.9712 105.688 99.0557C105.688 98.1403 106.429 97.3982 107.344 97.3982C108.259 97.3982 109 98.1403 109 99.0557C109 99.9712 108.259 100.713 107.344 100.713Z" fill="#DF0A0A"/>
<path d="M88.0872 99.0557C88.0872 99.9736 88.8263 100.713 89.7432 100.713C90.6602 100.713 91.3993 99.9736 91.3993 99.0557C91.3993 98.1379 90.6602 97.3982 89.7432 97.3982C88.8263 97.3982 88.0872 98.1379 88.0872 99.0557Z" fill="#DF0A0A"/>
<path d="M70.5003 99.0557C70.5003 99.9736 71.2393 100.713 72.1563 100.713C73.0733 100.713 73.8124 99.9736 73.8124 99.0557C73.8124 98.1379 73.0733 97.3982 72.1563 97.3982C71.2393 97.3982 70.5003 98.1379 70.5003 99.0557Z" fill="#DF0A0A"/>
<path d="M54.5693 100.713C53.6547 100.713 52.9132 99.9712 52.9132 99.0557C52.9132 98.1403 53.6547 97.3982 54.5693 97.3982C55.4839 97.3982 56.2253 98.1403 56.2253 99.0557C56.2253 99.9712 55.4839 100.713 54.5693 100.713Z" fill="#DF0A0A"/>
<path d="M36.9823 100.713C36.0677 100.713 35.3262 99.9712 35.3262 99.0557C35.3262 98.1403 36.0677 97.3982 36.9823 97.3982C37.8969 97.3982 38.6383 98.1403 38.6383 99.0557C38.6383 99.9712 37.8969 100.713 36.9823 100.713Z" fill="#DF0A0A"/>
<path d="M17.7255 99.0557C17.7255 99.9736 18.4646 100.713 19.3816 100.713C20.2985 100.713 21.0376 99.9736 21.0376 99.0557C21.0376 98.1379 20.2985 97.3982 19.3816 97.3982C18.4783 97.3982 17.7255 98.1379 17.7255 99.0557Z" fill="#DF0A0A"/>
<path d="M1.80832 100.713C0.893703 100.713 0.152254 99.9712 0.152254 99.0557C0.152254 98.1403 0.893703 97.3982 1.80832 97.3982C2.72293 97.3982 3.46436 98.1403 3.46436 99.0557C3.46436 99.9712 2.72293 100.713 1.80832 100.713Z" fill="#DF0A0A"/>
<path d="M105.674 118.535C105.674 119.453 106.413 120.193 107.33 120.193C108.247 120.193 108.986 119.453 108.986 118.535C108.986 117.617 108.247 116.878 107.33 116.878C106.427 116.878 105.674 117.617 105.674 118.535Z" fill="#DF0A0A"/>
<path d="M88.0872 118.535C88.0872 119.453 88.8263 120.193 89.7432 120.193C90.6602 120.193 91.3993 119.453 91.3993 118.535C91.3993 117.617 90.6602 116.878 89.7432 116.878C88.8263 116.878 88.0872 117.617 88.0872 118.535Z" fill="#DF0A0A"/>
<path d="M70.5003 118.535C70.5003 119.453 71.2393 120.193 72.1563 120.193C73.0733 120.193 73.8124 119.453 73.8124 118.535C73.8124 117.617 73.0733 116.878 72.1563 116.878C71.2393 116.878 70.5003 117.617 70.5003 118.535Z" fill="#DF0A0A"/>
<path d="M52.9132 118.535C52.9132 119.453 53.6523 120.193 54.5693 120.193C55.4863 120.193 56.2253 119.453 56.2253 118.535C56.2253 117.617 55.4863 116.878 54.5693 116.878C53.6523 116.878 52.9132 117.617 52.9132 118.535Z" fill="#DF0A0A"/>
<path d="M35.3262 118.535C35.3262 119.453 36.0653 120.193 36.9823 120.193C37.8993 120.193 38.6383 119.453 38.6383 118.535C38.6383 117.617 37.8993 116.878 36.9823 116.878C36.0653 116.878 35.3262 117.617 35.3262 118.535Z" fill="#DF0A0A"/>
<path d="M17.7255 118.535C17.7255 119.453 18.4646 120.193 19.3816 120.193C20.2985 120.193 21.0376 119.453 21.0376 118.535C21.0376 117.617 20.2985 116.878 19.3816 116.878C18.4783 116.878 17.7255 117.617 17.7255 118.535Z" fill="#DF0A0A"/>
<path d="M0.138582 118.535C0.138582 119.453 0.877635 120.193 1.79462 120.193C2.71161 120.193 3.45068 119.453 3.45068 118.535C3.45068 117.617 2.71161 116.878 1.79462 116.878C0.891321 116.878 0.138582 117.617 0.138582 118.535Z" fill="#DF0A0A"/>
<path d="M107.344 139.673C106.429 139.673 105.688 138.93 105.688 138.015C105.688 137.1 106.429 136.357 107.344 136.357C108.259 136.357 109 137.1 109 138.015C109 138.93 108.259 139.673 107.344 139.673Z" fill="#DF0A0A"/>
<path d="M88.0872 138.015C88.0872 138.933 88.8263 139.673 89.7432 139.673C90.6602 139.673 91.3993 138.933 91.3993 138.015C91.3993 137.097 90.6602 136.357 89.7432 136.357C88.8263 136.357 88.0872 137.097 88.0872 138.015Z" fill="#DF0A0A"/>
<path d="M70.5003 138.015C70.5003 138.933 71.2393 139.673 72.1563 139.673C73.0733 139.673 73.8124 138.933 73.8124 138.015C73.8124 137.097 73.0733 136.357 72.1563 136.357C71.2393 136.357 70.5003 137.097 70.5003 138.015Z" fill="#DF0A0A"/>
<path d="M54.5693 139.673C53.6547 139.673 52.9132 138.93 52.9132 138.015C52.9132 137.1 53.6547 136.357 54.5693 136.357C55.4839 136.357 56.2253 137.1 56.2253 138.015C56.2253 138.93 55.4839 139.673 54.5693 139.673Z" fill="#DF0A0A"/>
<path d="M36.9823 139.673C36.0677 139.673 35.3262 138.93 35.3262 138.015C35.3262 137.1 36.0677 136.357 36.9823 136.357C37.8969 136.357 38.6383 137.1 38.6383 138.015C38.6383 138.93 37.8969 139.673 36.9823 139.673Z" fill="#DF0A0A"/>
<path d="M17.7255 138.015C17.7255 138.933 18.4646 139.673 19.3816 139.673C20.2985 139.673 21.0376 138.933 21.0376 138.015C21.0376 137.097 20.2985 136.357 19.3816 136.357C18.4783 136.357 17.7255 137.097 17.7255 138.015Z" fill="#DF0A0A"/>
<path d="M1.80832 139.673C0.893703 139.673 0.152254 138.93 0.152254 138.015C0.152254 137.1 0.893703 136.357 1.80832 136.357C2.72293 136.357 3.46436 137.1 3.46436 138.015C3.46436 138.93 2.72293 139.673 1.80832 139.673Z" fill="#DF0A0A"/>
<path d="M230.344 3.31522C229.429 3.31522 228.688 2.57311 228.688 1.65767C228.688 0.742235 229.429 0.00012207 230.344 0.00012207C231.259 0.00012207 232 0.742235 232 1.65767C232 2.57311 231.259 3.31522 230.344 3.31522Z" fill="#DF0A0A"/>
<path d="M211.087 1.65774C211.087 2.57555 211.826 3.31528 212.743 3.31528C213.66 3.31528 214.399 2.57555 214.399 1.65774C214.399 0.739922 213.66 0.000187224 212.743 0.000187224C211.826 -0.0135115 211.087 0.726224 211.087 1.65774Z" fill="#DF0A0A"/>
<path d="M193.5 1.65774C193.5 2.57555 194.239 3.31528 195.156 3.31528C196.073 3.31528 196.812 2.57555 196.812 1.65774C196.812 0.739922 196.073 0.000187224 195.156 0.000187224C194.239 -0.0135115 193.5 0.726224 193.5 1.65774Z" fill="#DF0A0A"/>
<path d="M177.569 3.31522C176.655 3.31522 175.913 2.57311 175.913 1.65767C175.913 0.742235 176.655 0.00012207 177.569 0.00012207C178.484 0.00012207 179.225 0.742235 179.225 1.65767C179.225 2.57311 178.484 3.31522 177.569 3.31522Z" fill="#DF0A0A"/>
<path d="M159.982 3.31522C159.068 3.31522 158.326 2.57311 158.326 1.65767C158.326 0.742235 159.068 0.00012207 159.982 0.00012207C160.897 0.00012207 161.638 0.742235 161.638 1.65767C161.638 2.57311 160.897 3.31522 159.982 3.31522Z" fill="#DF0A0A"/>
<path d="M140.725 1.65774C140.725 2.57555 141.465 3.31528 142.382 3.31528C143.299 3.31528 144.038 2.57555 144.038 1.65774C144.038 0.739922 143.299 0.000187224 142.382 0.000187224C141.478 -0.0135115 140.725 0.726224 140.725 1.65774Z" fill="#DF0A0A"/>
<path d="M124.808 3.31522C123.894 3.31522 123.152 2.57311 123.152 1.65767C123.152 0.742235 123.894 0.00012207 124.808 0.00012207C125.723 0.00012207 126.464 0.742235 126.464 1.65767C126.464 2.57311 125.723 3.31522 124.808 3.31522Z" fill="#DF0A0A"/>
<path d="M228.674 21.1372C228.674 22.055 229.413 22.7948 230.33 22.7948C231.247 22.7948 231.986 22.055 231.986 21.1372C231.986 20.2194 231.247 19.4797 230.33 19.4797C229.427 19.466 228.674 20.2194 228.674 21.1372Z" fill="#DF0A0A"/>
<path d="M211.087 21.1372C211.087 22.055 211.826 22.7948 212.743 22.7948C213.66 22.7948 214.399 22.055 214.399 21.1372C214.399 20.2194 213.66 19.4797 212.743 19.4797C211.826 19.466 211.087 20.2194 211.087 21.1372Z" fill="#DF0A0A"/>
<path d="M193.5 21.1372C193.5 22.055 194.239 22.7948 195.156 22.7948C196.073 22.7948 196.812 22.055 196.812 21.1372C196.812 20.2194 196.073 19.4797 195.156 19.4797C194.239 19.466 193.5 20.2194 193.5 21.1372Z" fill="#DF0A0A"/>
<path d="M175.913 21.1374C175.913 22.0552 176.652 22.7949 177.569 22.7949C178.486 22.7949 179.225 22.0552 179.225 21.1374C179.225 20.2196 178.486 19.4799 177.569 19.4799C176.652 19.4799 175.913 20.2196 175.913 21.1374Z" fill="#DF0A0A"/>
<path d="M158.326 21.1374C158.326 22.0552 159.065 22.7949 159.982 22.7949C160.899 22.7949 161.638 22.0552 161.638 21.1374C161.638 20.2196 160.899 19.4799 159.982 19.4799C159.065 19.4799 158.326 20.2196 158.326 21.1374Z" fill="#DF0A0A"/>
<path d="M140.725 21.1372C140.725 22.055 141.465 22.7948 142.382 22.7948C143.299 22.7948 144.038 22.055 144.038 21.1372C144.038 20.2194 143.299 19.4797 142.382 19.4797C141.478 19.466 140.725 20.2194 140.725 21.1372Z" fill="#DF0A0A"/>
<path d="M123.139 21.1372C123.139 22.055 123.878 22.7948 124.795 22.7948C125.712 22.7948 126.451 22.055 126.451 21.1372C126.451 20.2194 125.712 19.4797 124.795 19.4797C123.891 19.466 123.139 20.2194 123.139 21.1372Z" fill="#DF0A0A"/>
<path d="M230.344 42.2745C229.429 42.2745 228.688 41.5323 228.688 40.6169C228.688 39.7015 229.429 38.9594 230.344 38.9594C231.259 38.9594 232 39.7015 232 40.6169C232 41.5323 231.259 42.2745 230.344 42.2745Z" fill="#DF0A0A"/>
<path d="M211.087 40.617C211.087 41.5348 211.826 42.2745 212.743 42.2745C213.66 42.2745 214.399 41.5348 214.399 40.617C214.399 39.6992 213.66 38.9594 212.743 38.9594C211.826 38.9457 211.087 39.6992 211.087 40.617Z" fill="#DF0A0A"/>
<path d="M193.5 40.617C193.5 41.5348 194.239 42.2745 195.156 42.2745C196.073 42.2745 196.812 41.5348 196.812 40.617C196.812 39.6992 196.073 38.9594 195.156 38.9594C194.239 38.9457 193.5 39.6992 193.5 40.617Z" fill="#DF0A0A"/>
<path d="M177.569 42.2745C176.655 42.2745 175.913 41.5323 175.913 40.6169C175.913 39.7015 176.655 38.9594 177.569 38.9594C178.484 38.9594 179.225 39.7015 179.225 40.6169C179.225 41.5323 178.484 42.2745 177.569 42.2745Z" fill="#DF0A0A"/>
<path d="M159.982 42.2745C159.068 42.2745 158.326 41.5323 158.326 40.6169C158.326 39.7015 159.068 38.9594 159.982 38.9594C160.897 38.9594 161.638 39.7015 161.638 40.6169C161.638 41.5323 160.897 42.2745 159.982 42.2745Z" fill="#DF0A0A"/>
<path d="M140.725 40.617C140.725 41.5348 141.465 42.2745 142.382 42.2745C143.299 42.2745 144.038 41.5348 144.038 40.617C144.038 39.6992 143.299 38.9594 142.382 38.9594C141.478 38.9457 140.725 39.6992 140.725 40.617Z" fill="#DF0A0A"/>
<path d="M124.808 42.2745C123.894 42.2745 123.152 41.5323 123.152 40.6169C123.152 39.7015 123.894 38.9594 124.808 38.9594C125.723 38.9594 126.464 39.7015 126.464 40.6169C126.464 41.5323 125.723 42.2745 124.808 42.2745Z" fill="#DF0A0A"/>
<path d="M228.674 60.0964C228.674 61.0143 229.413 61.754 230.33 61.754C231.247 61.754 231.986 61.0143 231.986 60.0964C231.986 59.1786 231.247 58.4389 230.33 58.4389C229.427 58.4252 228.674 59.1786 228.674 60.0964Z" fill="#DF0A0A"/>
<path d="M211.087 60.0964C211.087 61.0143 211.826 61.754 212.743 61.754C213.66 61.754 214.399 61.0143 214.399 60.0964C214.399 59.1786 213.66 58.4389 212.743 58.4389C211.826 58.4252 211.087 59.1786 211.087 60.0964Z" fill="#DF0A0A"/>
<path d="M193.5 60.0964C193.5 61.0143 194.239 61.754 195.156 61.754C196.073 61.754 196.812 61.0143 196.812 60.0964C196.812 59.1786 196.073 58.4389 195.156 58.4389C194.239 58.4252 193.5 59.1786 193.5 60.0964Z" fill="#DF0A0A"/>
<path d="M175.913 60.0965C175.913 61.0143 176.652 61.7541 177.569 61.7541C178.486 61.7541 179.225 61.0143 179.225 60.0965C179.225 59.1787 178.486 58.439 177.569 58.439C176.652 58.439 175.913 59.1787 175.913 60.0965Z" fill="#DF0A0A"/>
<path d="M158.326 60.0965C158.326 61.0143 159.065 61.7541 159.982 61.7541C160.899 61.7541 161.638 61.0143 161.638 60.0965C161.638 59.1787 160.899 58.439 159.982 58.439C159.065 58.439 158.326 59.1787 158.326 60.0965Z" fill="#DF0A0A"/>
<path d="M140.725 60.0964C140.725 61.0143 141.465 61.754 142.382 61.754C143.299 61.754 144.038 61.0143 144.038 60.0964C144.038 59.1786 143.299 58.4389 142.382 58.4389C141.478 58.4252 140.725 59.1786 140.725 60.0964Z" fill="#DF0A0A"/>
<path d="M123.139 60.0964C123.139 61.0143 123.878 61.754 124.795 61.754C125.712 61.754 126.451 61.0143 126.451 60.0964C126.451 59.1786 125.712 58.4389 124.795 58.4389C123.891 58.4252 123.139 59.1786 123.139 60.0964Z" fill="#DF0A0A"/>
<path d="M230.344 81.2337C229.429 81.2337 228.688 80.4916 228.688 79.5761C228.688 78.6607 229.429 77.9186 230.344 77.9186C231.259 77.9186 232 78.6607 232 79.5761C232 80.4916 231.259 81.2337 230.344 81.2337Z" fill="#DF0A0A"/>
<path d="M211.087 79.5761C211.087 80.4939 211.826 81.2337 212.743 81.2337C213.66 81.2337 214.399 80.4939 214.399 79.5761C214.399 78.6583 213.66 77.9186 212.743 77.9186C211.826 77.9186 211.087 78.6583 211.087 79.5761Z" fill="#DF0A0A"/>
<path d="M193.5 79.5761C193.5 80.4939 194.239 81.2337 195.156 81.2337C196.073 81.2337 196.812 80.4939 196.812 79.5761C196.812 78.6583 196.073 77.9186 195.156 77.9186C194.239 77.9186 193.5 78.6583 193.5 79.5761Z" fill="#DF0A0A"/>
<path d="M177.569 81.2337C176.655 81.2337 175.913 80.4916 175.913 79.5761C175.913 78.6607 176.655 77.9186 177.569 77.9186C178.484 77.9186 179.225 78.6607 179.225 79.5761C179.225 80.4916 178.484 81.2337 177.569 81.2337Z" fill="#DF0A0A"/>
<path d="M159.982 81.2337C159.068 81.2337 158.326 80.4916 158.326 79.5761C158.326 78.6607 159.068 77.9186 159.982 77.9186C160.897 77.9186 161.638 78.6607 161.638 79.5761C161.638 80.4916 160.897 81.2337 159.982 81.2337Z" fill="#DF0A0A"/>
<path d="M140.725 79.5761C140.725 80.4939 141.465 81.2337 142.382 81.2337C143.299 81.2337 144.038 80.4939 144.038 79.5761C144.038 78.6583 143.299 77.9186 142.382 77.9186C141.478 77.9186 140.725 78.6583 140.725 79.5761Z" fill="#DF0A0A"/>
<path d="M124.808 81.2337C123.894 81.2337 123.152 80.4916 123.152 79.5761C123.152 78.6607 123.894 77.9186 124.808 77.9186C125.723 77.9186 126.464 78.6607 126.464 79.5761C126.464 80.4916 125.723 81.2337 124.808 81.2337Z" fill="#DF0A0A"/>
<path d="M230.344 100.713C229.429 100.713 228.688 99.9712 228.688 99.0557C228.688 98.1403 229.429 97.3982 230.344 97.3982C231.259 97.3982 232 98.1403 232 99.0557C232 99.9712 231.259 100.713 230.344 100.713Z" fill="#DF0A0A"/>
<path d="M211.087 99.0557C211.087 99.9736 211.826 100.713 212.743 100.713C213.66 100.713 214.399 99.9736 214.399 99.0557C214.399 98.1379 213.66 97.3982 212.743 97.3982C211.826 97.3982 211.087 98.1379 211.087 99.0557Z" fill="#DF0A0A"/>
<path d="M193.5 99.0557C193.5 99.9736 194.239 100.713 195.156 100.713C196.073 100.713 196.812 99.9736 196.812 99.0557C196.812 98.1379 196.073 97.3982 195.156 97.3982C194.239 97.3982 193.5 98.1379 193.5 99.0557Z" fill="#DF0A0A"/>
<path d="M177.569 100.713C176.655 100.713 175.913 99.9712 175.913 99.0557C175.913 98.1403 176.655 97.3982 177.569 97.3982C178.484 97.3982 179.225 98.1403 179.225 99.0557C179.225 99.9712 178.484 100.713 177.569 100.713Z" fill="#DF0A0A"/>
<path d="M159.982 100.713C159.068 100.713 158.326 99.9712 158.326 99.0557C158.326 98.1403 159.068 97.3982 159.982 97.3982C160.897 97.3982 161.638 98.1403 161.638 99.0557C161.638 99.9712 160.897 100.713 159.982 100.713Z" fill="#DF0A0A"/>
<path d="M140.725 99.0557C140.725 99.9736 141.465 100.713 142.382 100.713C143.299 100.713 144.038 99.9736 144.038 99.0557C144.038 98.1379 143.299 97.3982 142.382 97.3982C141.478 97.3982 140.725 98.1379 140.725 99.0557Z" fill="#DF0A0A"/>
<path d="M124.808 100.713C123.894 100.713 123.152 99.9712 123.152 99.0557C123.152 98.1403 123.894 97.3982 124.808 97.3982C125.723 97.3982 126.464 98.1403 126.464 99.0557C126.464 99.9712 125.723 100.713 124.808 100.713Z" fill="#DF0A0A"/>
<path d="M228.674 118.535C228.674 119.453 229.413 120.193 230.33 120.193C231.247 120.193 231.986 119.453 231.986 118.535C231.986 117.617 231.247 116.878 230.33 116.878C229.427 116.878 228.674 117.617 228.674 118.535Z" fill="#DF0A0A"/>
<path d="M211.087 118.535C211.087 119.453 211.826 120.193 212.743 120.193C213.66 120.193 214.399 119.453 214.399 118.535C214.399 117.617 213.66 116.878 212.743 116.878C211.826 116.878 211.087 117.617 211.087 118.535Z" fill="#DF0A0A"/>
<path d="M193.5 118.535C193.5 119.453 194.239 120.193 195.156 120.193C196.073 120.193 196.812 119.453 196.812 118.535C196.812 117.617 196.073 116.878 195.156 116.878C194.239 116.878 193.5 117.617 193.5 118.535Z" fill="#DF0A0A"/>
<path d="M175.913 118.535C175.913 119.453 176.652 120.193 177.569 120.193C178.486 120.193 179.225 119.453 179.225 118.535C179.225 117.617 178.486 116.878 177.569 116.878C176.652 116.878 175.913 117.617 175.913 118.535Z" fill="#DF0A0A"/>
<path d="M158.326 118.535C158.326 119.453 159.065 120.193 159.982 120.193C160.899 120.193 161.638 119.453 161.638 118.535C161.638 117.617 160.899 116.878 159.982 116.878C159.065 116.878 158.326 117.617 158.326 118.535Z" fill="#DF0A0A"/>
<path d="M140.725 118.535C140.725 119.453 141.465 120.193 142.382 120.193C143.299 120.193 144.038 119.453 144.038 118.535C144.038 117.617 143.299 116.878 142.382 116.878C141.478 116.878 140.725 117.617 140.725 118.535Z" fill="#DF0A0A"/>
<path d="M123.139 118.535C123.139 119.453 123.878 120.193 124.795 120.193C125.712 120.193 126.451 119.453 126.451 118.535C126.451 117.617 125.712 116.878 124.795 116.878C123.891 116.878 123.139 117.617 123.139 118.535Z" fill="#DF0A0A"/>
<path d="M230.344 139.673C229.429 139.673 228.688 138.93 228.688 138.015C228.688 137.1 229.429 136.357 230.344 136.357C231.259 136.357 232 137.1 232 138.015C232 138.93 231.259 139.673 230.344 139.673Z" fill="#DF0A0A"/>
<path d="M211.087 138.015C211.087 138.933 211.826 139.673 212.743 139.673C213.66 139.673 214.399 138.933 214.399 138.015C214.399 137.097 213.66 136.357 212.743 136.357C211.826 136.357 211.087 137.097 211.087 138.015Z" fill="#DF0A0A"/>
<path d="M193.5 138.015C193.5 138.933 194.239 139.673 195.156 139.673C196.073 139.673 196.812 138.933 196.812 138.015C196.812 137.097 196.073 136.357 195.156 136.357C194.239 136.357 193.5 137.097 193.5 138.015Z" fill="#DF0A0A"/>
<path d="M177.569 139.673C176.655 139.673 175.913 138.93 175.913 138.015C175.913 137.1 176.655 136.357 177.569 136.357C178.484 136.357 179.225 137.1 179.225 138.015C179.225 138.93 178.484 139.673 177.569 139.673Z" fill="#DF0A0A"/>
<path d="M159.982 139.673C159.068 139.673 158.326 138.93 158.326 138.015C158.326 137.1 159.068 136.357 159.982 136.357C160.897 136.357 161.638 137.1 161.638 138.015C161.638 138.93 160.897 139.673 159.982 139.673Z" fill="#DF0A0A"/>
<path d="M140.725 138.015C140.725 138.933 141.465 139.673 142.382 139.673C143.299 139.673 144.038 138.933 144.038 138.015C144.038 137.097 143.299 136.357 142.382 136.357C141.478 136.357 140.725 137.097 140.725 138.015Z" fill="#DF0A0A"/>
<path d="M124.808 139.673C123.894 139.673 123.152 138.93 123.152 138.015C123.152 137.1 123.894 136.357 124.808 136.357C125.723 136.357 126.464 137.1 126.464 138.015C126.464 138.93 125.723 139.673 124.808 139.673Z" fill="#DF0A0A"/>
<path d="M353.344 3.31522C352.429 3.31522 351.688 2.57311 351.688 1.65767C351.688 0.742235 352.429 0.00012207 353.344 0.00012207C354.259 0.00012207 355 0.742235 355 1.65767C355 2.57311 354.259 3.31522 353.344 3.31522Z" fill="#DF0A0A"/>
<path d="M334.087 1.65774C334.087 2.57555 334.826 3.31528 335.743 3.31528C336.66 3.31528 337.399 2.57555 337.399 1.65774C337.399 0.739922 336.66 0.000187224 335.743 0.000187224C334.826 -0.0135115 334.087 0.726224 334.087 1.65774Z" fill="#DF0A0A"/>
<path d="M316.5 1.65774C316.5 2.57555 317.239 3.31528 318.156 3.31528C319.073 3.31528 319.812 2.57555 319.812 1.65774C319.812 0.739922 319.073 0.000187224 318.156 0.000187224C317.239 -0.0135115 316.5 0.726224 316.5 1.65774Z" fill="#DF0A0A"/>
<path d="M300.569 3.31522C299.655 3.31522 298.913 2.57311 298.913 1.65767C298.913 0.742235 299.655 0.00012207 300.569 0.00012207C301.484 0.00012207 302.225 0.742235 302.225 1.65767C302.225 2.57311 301.484 3.31522 300.569 3.31522Z" fill="#DF0A0A"/>
<path d="M282.982 3.31522C282.068 3.31522 281.326 2.57311 281.326 1.65767C281.326 0.742235 282.068 0.00012207 282.982 0.00012207C283.897 0.00012207 284.638 0.742235 284.638 1.65767C284.638 2.57311 283.897 3.31522 282.982 3.31522Z" fill="#DF0A0A"/>
<path d="M263.726 1.65774C263.726 2.57555 264.465 3.31528 265.382 3.31528C266.299 3.31528 267.038 2.57555 267.038 1.65774C267.038 0.739922 266.299 0.000187224 265.382 0.000187224C264.478 -0.0135115 263.726 0.726224 263.726 1.65774Z" fill="#DF0A0A"/>
<path d="M247.808 3.31522C246.894 3.31522 246.152 2.57311 246.152 1.65767C246.152 0.742235 246.894 0.00012207 247.808 0.00012207C248.723 0.00012207 249.464 0.742235 249.464 1.65767C249.464 2.57311 248.723 3.31522 247.808 3.31522Z" fill="#DF0A0A"/>
<path d="M351.674 21.1372C351.674 22.055 352.413 22.7948 353.33 22.7948C354.247 22.7948 354.986 22.055 354.986 21.1372C354.986 20.2194 354.247 19.4797 353.33 19.4797C352.427 19.466 351.674 20.2194 351.674 21.1372Z" fill="#DF0A0A"/>
<path d="M334.087 21.1372C334.087 22.055 334.826 22.7948 335.743 22.7948C336.66 22.7948 337.399 22.055 337.399 21.1372C337.399 20.2194 336.66 19.4797 335.743 19.4797C334.826 19.466 334.087 20.2194 334.087 21.1372Z" fill="#DF0A0A"/>
<path d="M316.5 21.1372C316.5 22.055 317.239 22.7948 318.156 22.7948C319.073 22.7948 319.812 22.055 319.812 21.1372C319.812 20.2194 319.073 19.4797 318.156 19.4797C317.239 19.466 316.5 20.2194 316.5 21.1372Z" fill="#DF0A0A"/>
<path d="M298.913 21.1374C298.913 22.0552 299.652 22.7949 300.569 22.7949C301.486 22.7949 302.225 22.0552 302.225 21.1374C302.225 20.2196 301.486 19.4799 300.569 19.4799C299.652 19.4799 298.913 20.2196 298.913 21.1374Z" fill="#DF0A0A"/>
<path d="M281.326 21.1374C281.326 22.0552 282.065 22.7949 282.982 22.7949C283.899 22.7949 284.638 22.0552 284.638 21.1374C284.638 20.2196 283.899 19.4799 282.982 19.4799C282.065 19.4799 281.326 20.2196 281.326 21.1374Z" fill="#DF0A0A"/>
<path d="M263.726 21.1372C263.726 22.055 264.465 22.7948 265.382 22.7948C266.299 22.7948 267.038 22.055 267.038 21.1372C267.038 20.2194 266.299 19.4797 265.382 19.4797C264.478 19.466 263.726 20.2194 263.726 21.1372Z" fill="#DF0A0A"/>
<path d="M246.139 21.1372C246.139 22.055 246.878 22.7948 247.795 22.7948C248.712 22.7948 249.451 22.055 249.451 21.1372C249.451 20.2194 248.712 19.4797 247.795 19.4797C246.891 19.466 246.139 20.2194 246.139 21.1372Z" fill="#DF0A0A"/>
<path d="M353.344 42.2745C352.429 42.2745 351.688 41.5323 351.688 40.6169C351.688 39.7015 352.429 38.9594 353.344 38.9594C354.259 38.9594 355 39.7015 355 40.6169C355 41.5323 354.259 42.2745 353.344 42.2745Z" fill="#DF0A0A"/>
<path d="M334.087 40.617C334.087 41.5348 334.826 42.2745 335.743 42.2745C336.66 42.2745 337.399 41.5348 337.399 40.617C337.399 39.6992 336.66 38.9594 335.743 38.9594C334.826 38.9457 334.087 39.6992 334.087 40.617Z" fill="#DF0A0A"/>
<path d="M316.5 40.617C316.5 41.5348 317.239 42.2745 318.156 42.2745C319.073 42.2745 319.812 41.5348 319.812 40.617C319.812 39.6992 319.073 38.9594 318.156 38.9594C317.239 38.9457 316.5 39.6992 316.5 40.617Z" fill="#DF0A0A"/>
<path d="M300.569 42.2745C299.655 42.2745 298.913 41.5323 298.913 40.6169C298.913 39.7015 299.655 38.9594 300.569 38.9594C301.484 38.9594 302.225 39.7015 302.225 40.6169C302.225 41.5323 301.484 42.2745 300.569 42.2745Z" fill="#DF0A0A"/>
<path d="M282.982 42.2745C282.068 42.2745 281.326 41.5323 281.326 40.6169C281.326 39.7015 282.068 38.9594 282.982 38.9594C283.897 38.9594 284.638 39.7015 284.638 40.6169C284.638 41.5323 283.897 42.2745 282.982 42.2745Z" fill="#DF0A0A"/>
<path d="M263.726 40.617C263.726 41.5348 264.465 42.2745 265.382 42.2745C266.299 42.2745 267.038 41.5348 267.038 40.617C267.038 39.6992 266.299 38.9594 265.382 38.9594C264.478 38.9457 263.726 39.6992 263.726 40.617Z" fill="#DF0A0A"/>
<path d="M247.808 42.2745C246.894 42.2745 246.152 41.5323 246.152 40.6169C246.152 39.7015 246.894 38.9594 247.808 38.9594C248.723 38.9594 249.464 39.7015 249.464 40.6169C249.464 41.5323 248.723 42.2745 247.808 42.2745Z" fill="#DF0A0A"/>
<path d="M351.674 60.0964C351.674 61.0143 352.413 61.754 353.33 61.754C354.247 61.754 354.986 61.0143 354.986 60.0964C354.986 59.1786 354.247 58.4389 353.33 58.4389C352.427 58.4252 351.674 59.1786 351.674 60.0964Z" fill="#DF0A0A"/>
<path d="M334.087 60.0964C334.087 61.0143 334.826 61.754 335.743 61.754C336.66 61.754 337.399 61.0143 337.399 60.0964C337.399 59.1786 336.66 58.4389 335.743 58.4389C334.826 58.4252 334.087 59.1786 334.087 60.0964Z" fill="#DF0A0A"/>
<path d="M316.5 60.0964C316.5 61.0143 317.239 61.754 318.156 61.754C319.073 61.754 319.812 61.0143 319.812 60.0964C319.812 59.1786 319.073 58.4389 318.156 58.4389C317.239 58.4252 316.5 59.1786 316.5 60.0964Z" fill="#DF0A0A"/>
<path d="M298.913 60.0965C298.913 61.0143 299.652 61.7541 300.569 61.7541C301.486 61.7541 302.225 61.0143 302.225 60.0965C302.225 59.1787 301.486 58.439 300.569 58.439C299.652 58.439 298.913 59.1787 298.913 60.0965Z" fill="#DF0A0A"/>
<path d="M281.326 60.0965C281.326 61.0143 282.065 61.7541 282.982 61.7541C283.899 61.7541 284.638 61.0143 284.638 60.0965C284.638 59.1787 283.899 58.439 282.982 58.439C282.065 58.439 281.326 59.1787 281.326 60.0965Z" fill="#DF0A0A"/>
<path d="M263.726 60.0964C263.726 61.0143 264.465 61.754 265.382 61.754C266.299 61.754 267.038 61.0143 267.038 60.0964C267.038 59.1786 266.299 58.4389 265.382 58.4389C264.478 58.4252 263.726 59.1786 263.726 60.0964Z" fill="#DF0A0A"/>
<path d="M246.139 60.0964C246.139 61.0143 246.878 61.754 247.795 61.754C248.712 61.754 249.451 61.0143 249.451 60.0964C249.451 59.1786 248.712 58.4389 247.795 58.4389C246.891 58.4252 246.139 59.1786 246.139 60.0964Z" fill="#DF0A0A"/>
<path d="M353.344 81.2337C352.429 81.2337 351.688 80.4916 351.688 79.5761C351.688 78.6607 352.429 77.9186 353.344 77.9186C354.259 77.9186 355 78.6607 355 79.5761C355 80.4916 354.259 81.2337 353.344 81.2337Z" fill="#DF0A0A"/>
<path d="M334.087 79.5761C334.087 80.4939 334.826 81.2337 335.743 81.2337C336.66 81.2337 337.399 80.4939 337.399 79.5761C337.399 78.6583 336.66 77.9186 335.743 77.9186C334.826 77.9186 334.087 78.6583 334.087 79.5761Z" fill="#DF0A0A"/>
<path d="M316.5 79.5761C316.5 80.4939 317.239 81.2337 318.156 81.2337C319.073 81.2337 319.812 80.4939 319.812 79.5761C319.812 78.6583 319.073 77.9186 318.156 77.9186C317.239 77.9186 316.5 78.6583 316.5 79.5761Z" fill="#DF0A0A"/>
<path d="M300.569 81.2337C299.655 81.2337 298.913 80.4916 298.913 79.5761C298.913 78.6607 299.655 77.9186 300.569 77.9186C301.484 77.9186 302.225 78.6607 302.225 79.5761C302.225 80.4916 301.484 81.2337 300.569 81.2337Z" fill="#DF0A0A"/>
<path d="M282.982 81.2337C282.068 81.2337 281.326 80.4916 281.326 79.5761C281.326 78.6607 282.068 77.9186 282.982 77.9186C283.897 77.9186 284.638 78.6607 284.638 79.5761C284.638 80.4916 283.897 81.2337 282.982 81.2337Z" fill="#DF0A0A"/>
<path d="M263.726 79.5761C263.726 80.4939 264.465 81.2337 265.382 81.2337C266.299 81.2337 267.038 80.4939 267.038 79.5761C267.038 78.6583 266.299 77.9186 265.382 77.9186C264.478 77.9186 263.726 78.6583 263.726 79.5761Z" fill="#DF0A0A"/>
<path d="M247.808 81.2337C246.894 81.2337 246.152 80.4916 246.152 79.5761C246.152 78.6607 246.894 77.9186 247.808 77.9186C248.723 77.9186 249.464 78.6607 249.464 79.5761C249.464 80.4916 248.723 81.2337 247.808 81.2337Z" fill="#DF0A0A"/>
<path d="M353.344 100.713C352.429 100.713 351.688 99.9712 351.688 99.0557C351.688 98.1403 352.429 97.3982 353.344 97.3982C354.259 97.3982 355 98.1403 355 99.0557C355 99.9712 354.259 100.713 353.344 100.713Z" fill="#DF0A0A"/>
<path d="M334.087 99.0557C334.087 99.9736 334.826 100.713 335.743 100.713C336.66 100.713 337.399 99.9736 337.399 99.0557C337.399 98.1379 336.66 97.3982 335.743 97.3982C334.826 97.3982 334.087 98.1379 334.087 99.0557Z" fill="#DF0A0A"/>
<path d="M316.5 99.0557C316.5 99.9736 317.239 100.713 318.156 100.713C319.073 100.713 319.812 99.9736 319.812 99.0557C319.812 98.1379 319.073 97.3982 318.156 97.3982C317.239 97.3982 316.5 98.1379 316.5 99.0557Z" fill="#DF0A0A"/>
<path d="M300.569 100.713C299.655 100.713 298.913 99.9712 298.913 99.0557C298.913 98.1403 299.655 97.3982 300.569 97.3982C301.484 97.3982 302.225 98.1403 302.225 99.0557C302.225 99.9712 301.484 100.713 300.569 100.713Z" fill="#DF0A0A"/>
<path d="M282.982 100.713C282.068 100.713 281.326 99.9712 281.326 99.0557C281.326 98.1403 282.068 97.3982 282.982 97.3982C283.897 97.3982 284.638 98.1403 284.638 99.0557C284.638 99.9712 283.897 100.713 282.982 100.713Z" fill="#DF0A0A"/>
<path d="M263.726 99.0557C263.726 99.9736 264.465 100.713 265.382 100.713C266.299 100.713 267.038 99.9736 267.038 99.0557C267.038 98.1379 266.299 97.3982 265.382 97.3982C264.478 97.3982 263.726 98.1379 263.726 99.0557Z" fill="#DF0A0A"/>
<path d="M247.808 100.713C246.894 100.713 246.152 99.9712 246.152 99.0557C246.152 98.1403 246.894 97.3982 247.808 97.3982C248.723 97.3982 249.464 98.1403 249.464 99.0557C249.464 99.9712 248.723 100.713 247.808 100.713Z" fill="#DF0A0A"/>
<path d="M351.674 118.535C351.674 119.453 352.413 120.193 353.33 120.193C354.247 120.193 354.986 119.453 354.986 118.535C354.986 117.617 354.247 116.878 353.33 116.878C352.427 116.878 351.674 117.617 351.674 118.535Z" fill="#DF0A0A"/>
<path d="M334.087 118.535C334.087 119.453 334.826 120.193 335.743 120.193C336.66 120.193 337.399 119.453 337.399 118.535C337.399 117.617 336.66 116.878 335.743 116.878C334.826 116.878 334.087 117.617 334.087 118.535Z" fill="#DF0A0A"/>
<path d="M316.5 118.535C316.5 119.453 317.239 120.193 318.156 120.193C319.073 120.193 319.812 119.453 319.812 118.535C319.812 117.617 319.073 116.878 318.156 116.878C317.239 116.878 316.5 117.617 316.5 118.535Z" fill="#DF0A0A"/>
<path d="M298.913 118.535C298.913 119.453 299.652 120.193 300.569 120.193C301.486 120.193 302.225 119.453 302.225 118.535C302.225 117.617 301.486 116.878 300.569 116.878C299.652 116.878 298.913 117.617 298.913 118.535Z" fill="#DF0A0A"/>
<path d="M281.326 118.535C281.326 119.453 282.065 120.193 282.982 120.193C283.899 120.193 284.638 119.453 284.638 118.535C284.638 117.617 283.899 116.878 282.982 116.878C282.065 116.878 281.326 117.617 281.326 118.535Z" fill="#DF0A0A"/>
<path d="M263.726 118.535C263.726 119.453 264.465 120.193 265.382 120.193C266.299 120.193 267.038 119.453 267.038 118.535C267.038 117.617 266.299 116.878 265.382 116.878C264.478 116.878 263.726 117.617 263.726 118.535Z" fill="#DF0A0A"/>
<path d="M246.139 118.535C246.139 119.453 246.878 120.193 247.795 120.193C248.712 120.193 249.451 119.453 249.451 118.535C249.451 117.617 248.712 116.878 247.795 116.878C246.891 116.878 246.139 117.617 246.139 118.535Z" fill="#DF0A0A"/>
<path d="M353.344 139.673C352.429 139.673 351.688 138.93 351.688 138.015C351.688 137.1 352.429 136.357 353.344 136.357C354.259 136.357 355 137.1 355 138.015C355 138.93 354.259 139.673 353.344 139.673Z" fill="#DF0A0A"/>
<path d="M334.087 138.015C334.087 138.933 334.826 139.673 335.743 139.673C336.66 139.673 337.399 138.933 337.399 138.015C337.399 137.097 336.66 136.357 335.743 136.357C334.826 136.357 334.087 137.097 334.087 138.015Z" fill="#DF0A0A"/>
<path d="M316.5 138.015C316.5 138.933 317.239 139.673 318.156 139.673C319.073 139.673 319.812 138.933 319.812 138.015C319.812 137.097 319.073 136.357 318.156 136.357C317.239 136.357 316.5 137.097 316.5 138.015Z" fill="#DF0A0A"/>
<path d="M300.569 139.673C299.655 139.673 298.913 138.93 298.913 138.015C298.913 137.1 299.655 136.357 300.569 136.357C301.484 136.357 302.225 137.1 302.225 138.015C302.225 138.93 301.484 139.673 300.569 139.673Z" fill="#DF0A0A"/>
<path d="M282.982 139.673C282.068 139.673 281.326 138.93 281.326 138.015C281.326 137.1 282.068 136.357 282.982 136.357C283.897 136.357 284.638 137.1 284.638 138.015C284.638 138.93 283.897 139.673 282.982 139.673Z" fill="#DF0A0A"/>
<path d="M263.726 138.015C263.726 138.933 264.465 139.673 265.382 139.673C266.299 139.673 267.038 138.933 267.038 138.015C267.038 137.097 266.299 136.357 265.382 136.357C264.478 136.357 263.726 137.097 263.726 138.015Z" fill="#DF0A0A"/>
<path d="M247.808 139.673C246.894 139.673 246.152 138.93 246.152 138.015C246.152 137.1 246.894 136.357 247.808 136.357C248.723 136.357 249.464 137.1 249.464 138.015C249.464 138.93 248.723 139.673 247.808 139.673Z" fill="#DF0A0A"/>
<path d="M477.344 3.31522C476.429 3.31522 475.688 2.57311 475.688 1.65767C475.688 0.742235 476.429 0.00012207 477.344 0.00012207C478.259 0.00012207 479 0.742235 479 1.65767C479 2.57311 478.259 3.31522 477.344 3.31522Z" fill="#DF0A0A"/>
<path d="M458.087 1.65774C458.087 2.57555 458.826 3.31528 459.743 3.31528C460.66 3.31528 461.399 2.57555 461.399 1.65774C461.399 0.739922 460.66 0.000187224 459.743 0.000187224C458.826 -0.0135115 458.087 0.726224 458.087 1.65774Z" fill="#DF0A0A"/>
<path d="M440.5 1.65774C440.5 2.57555 441.239 3.31528 442.156 3.31528C443.073 3.31528 443.812 2.57555 443.812 1.65774C443.812 0.739922 443.073 0.000187224 442.156 0.000187224C441.239 -0.0135115 440.5 0.726224 440.5 1.65774Z" fill="#DF0A0A"/>
<path d="M424.569 3.31522C423.655 3.31522 422.913 2.57311 422.913 1.65767C422.913 0.742235 423.655 0.00012207 424.569 0.00012207C425.484 0.00012207 426.225 0.742235 426.225 1.65767C426.225 2.57311 425.484 3.31522 424.569 3.31522Z" fill="#DF0A0A"/>
<path d="M406.982 3.31522C406.068 3.31522 405.326 2.57311 405.326 1.65767C405.326 0.742235 406.068 0.00012207 406.982 0.00012207C407.897 0.00012207 408.638 0.742235 408.638 1.65767C408.638 2.57311 407.897 3.31522 406.982 3.31522Z" fill="#DF0A0A"/>
<path d="M387.726 1.65774C387.726 2.57555 388.465 3.31528 389.382 3.31528C390.299 3.31528 391.038 2.57555 391.038 1.65774C391.038 0.739922 390.299 0.000187224 389.382 0.000187224C388.478 -0.0135115 387.726 0.726224 387.726 1.65774Z" fill="#DF0A0A"/>
<path d="M371.808 3.31522C370.894 3.31522 370.152 2.57311 370.152 1.65767C370.152 0.742235 370.894 0.00012207 371.808 0.00012207C372.723 0.00012207 373.464 0.742235 373.464 1.65767C373.464 2.57311 372.723 3.31522 371.808 3.31522Z" fill="#DF0A0A"/>
<path d="M475.674 21.1372C475.674 22.055 476.413 22.7948 477.33 22.7948C478.247 22.7948 478.986 22.055 478.986 21.1372C478.986 20.2194 478.247 19.4797 477.33 19.4797C476.427 19.466 475.674 20.2194 475.674 21.1372Z" fill="#DF0A0A"/>
<path d="M458.087 21.1372C458.087 22.055 458.826 22.7948 459.743 22.7948C460.66 22.7948 461.399 22.055 461.399 21.1372C461.399 20.2194 460.66 19.4797 459.743 19.4797C458.826 19.466 458.087 20.2194 458.087 21.1372Z" fill="#DF0A0A"/>
<path d="M440.5 21.1372C440.5 22.055 441.239 22.7948 442.156 22.7948C443.073 22.7948 443.812 22.055 443.812 21.1372C443.812 20.2194 443.073 19.4797 442.156 19.4797C441.239 19.466 440.5 20.2194 440.5 21.1372Z" fill="#DF0A0A"/>
<path d="M422.913 21.1374C422.913 22.0552 423.652 22.7949 424.569 22.7949C425.486 22.7949 426.225 22.0552 426.225 21.1374C426.225 20.2196 425.486 19.4799 424.569 19.4799C423.652 19.4799 422.913 20.2196 422.913 21.1374Z" fill="#DF0A0A"/>
<path d="M405.326 21.1374C405.326 22.0552 406.065 22.7949 406.982 22.7949C407.899 22.7949 408.638 22.0552 408.638 21.1374C408.638 20.2196 407.899 19.4799 406.982 19.4799C406.065 19.4799 405.326 20.2196 405.326 21.1374Z" fill="#DF0A0A"/>
<path d="M387.726 21.1372C387.726 22.055 388.465 22.7948 389.382 22.7948C390.299 22.7948 391.038 22.055 391.038 21.1372C391.038 20.2194 390.299 19.4797 389.382 19.4797C388.478 19.466 387.726 20.2194 387.726 21.1372Z" fill="#DF0A0A"/>
<path d="M370.139 21.1372C370.139 22.055 370.878 22.7948 371.795 22.7948C372.712 22.7948 373.451 22.055 373.451 21.1372C373.451 20.2194 372.712 19.4797 371.795 19.4797C370.891 19.466 370.139 20.2194 370.139 21.1372Z" fill="#DF0A0A"/>
<path d="M477.344 42.2745C476.429 42.2745 475.688 41.5323 475.688 40.6169C475.688 39.7015 476.429 38.9594 477.344 38.9594C478.259 38.9594 479 39.7015 479 40.6169C479 41.5323 478.259 42.2745 477.344 42.2745Z" fill="#DF0A0A"/>
<path d="M458.087 40.617C458.087 41.5348 458.826 42.2745 459.743 42.2745C460.66 42.2745 461.399 41.5348 461.399 40.617C461.399 39.6992 460.66 38.9594 459.743 38.9594C458.826 38.9457 458.087 39.6992 458.087 40.617Z" fill="#DF0A0A"/>
<path d="M440.5 40.617C440.5 41.5348 441.239 42.2745 442.156 42.2745C443.073 42.2745 443.812 41.5348 443.812 40.617C443.812 39.6992 443.073 38.9594 442.156 38.9594C441.239 38.9457 440.5 39.6992 440.5 40.617Z" fill="#DF0A0A"/>
<path d="M424.569 42.2745C423.655 42.2745 422.913 41.5323 422.913 40.6169C422.913 39.7015 423.655 38.9594 424.569 38.9594C425.484 38.9594 426.225 39.7015 426.225 40.6169C426.225 41.5323 425.484 42.2745 424.569 42.2745Z" fill="#DF0A0A"/>
<path d="M406.982 42.2745C406.068 42.2745 405.326 41.5323 405.326 40.6169C405.326 39.7015 406.068 38.9594 406.982 38.9594C407.897 38.9594 408.638 39.7015 408.638 40.6169C408.638 41.5323 407.897 42.2745 406.982 42.2745Z" fill="#DF0A0A"/>
<path d="M387.726 40.617C387.726 41.5348 388.465 42.2745 389.382 42.2745C390.299 42.2745 391.038 41.5348 391.038 40.617C391.038 39.6992 390.299 38.9594 389.382 38.9594C388.478 38.9457 387.726 39.6992 387.726 40.617Z" fill="#DF0A0A"/>
<path d="M371.808 42.2745C370.894 42.2745 370.152 41.5323 370.152 40.6169C370.152 39.7015 370.894 38.9594 371.808 38.9594C372.723 38.9594 373.464 39.7015 373.464 40.6169C373.464 41.5323 372.723 42.2745 371.808 42.2745Z" fill="#DF0A0A"/>
<path d="M475.674 60.0964C475.674 61.0143 476.413 61.754 477.33 61.754C478.247 61.754 478.986 61.0143 478.986 60.0964C478.986 59.1786 478.247 58.4389 477.33 58.4389C476.427 58.4252 475.674 59.1786 475.674 60.0964Z" fill="#DF0A0A"/>
<path d="M458.087 60.0964C458.087 61.0143 458.826 61.754 459.743 61.754C460.66 61.754 461.399 61.0143 461.399 60.0964C461.399 59.1786 460.66 58.4389 459.743 58.4389C458.826 58.4252 458.087 59.1786 458.087 60.0964Z" fill="#DF0A0A"/>
<path d="M440.5 60.0964C440.5 61.0143 441.239 61.754 442.156 61.754C443.073 61.754 443.812 61.0143 443.812 60.0964C443.812 59.1786 443.073 58.4389 442.156 58.4389C441.239 58.4252 440.5 59.1786 440.5 60.0964Z" fill="#DF0A0A"/>
<path d="M422.913 60.0965C422.913 61.0143 423.652 61.7541 424.569 61.7541C425.486 61.7541 426.225 61.0143 426.225 60.0965C426.225 59.1787 425.486 58.439 424.569 58.439C423.652 58.439 422.913 59.1787 422.913 60.0965Z" fill="#DF0A0A"/>
<path d="M405.326 60.0965C405.326 61.0143 406.065 61.7541 406.982 61.7541C407.899 61.7541 408.638 61.0143 408.638 60.0965C408.638 59.1787 407.899 58.439 406.982 58.439C406.065 58.439 405.326 59.1787 405.326 60.0965Z" fill="#DF0A0A"/>
<path d="M387.726 60.0964C387.726 61.0143 388.465 61.754 389.382 61.754C390.299 61.754 391.038 61.0143 391.038 60.0964C391.038 59.1786 390.299 58.4389 389.382 58.4389C388.478 58.4252 387.726 59.1786 387.726 60.0964Z" fill="#DF0A0A"/>
<path d="M370.139 60.0964C370.139 61.0143 370.878 61.754 371.795 61.754C372.712 61.754 373.451 61.0143 373.451 60.0964C373.451 59.1786 372.712 58.4389 371.795 58.4389C370.891 58.4252 370.139 59.1786 370.139 60.0964Z" fill="#DF0A0A"/>
<path d="M477.344 81.2337C476.429 81.2337 475.688 80.4916 475.688 79.5761C475.688 78.6607 476.429 77.9186 477.344 77.9186C478.259 77.9186 479 78.6607 479 79.5761C479 80.4916 478.259 81.2337 477.344 81.2337Z" fill="#DF0A0A"/>
<path d="M458.087 79.5761C458.087 80.4939 458.826 81.2337 459.743 81.2337C460.66 81.2337 461.399 80.4939 461.399 79.5761C461.399 78.6583 460.66 77.9186 459.743 77.9186C458.826 77.9186 458.087 78.6583 458.087 79.5761Z" fill="#DF0A0A"/>
<path d="M440.5 79.5761C440.5 80.4939 441.239 81.2337 442.156 81.2337C443.073 81.2337 443.812 80.4939 443.812 79.5761C443.812 78.6583 443.073 77.9186 442.156 77.9186C441.239 77.9186 440.5 78.6583 440.5 79.5761Z" fill="#DF0A0A"/>
<path d="M424.569 81.2337C423.655 81.2337 422.913 80.4916 422.913 79.5761C422.913 78.6607 423.655 77.9186 424.569 77.9186C425.484 77.9186 426.225 78.6607 426.225 79.5761C426.225 80.4916 425.484 81.2337 424.569 81.2337Z" fill="#DF0A0A"/>
<path d="M406.982 81.2337C406.068 81.2337 405.326 80.4916 405.326 79.5761C405.326 78.6607 406.068 77.9186 406.982 77.9186C407.897 77.9186 408.638 78.6607 408.638 79.5761C408.638 80.4916 407.897 81.2337 406.982 81.2337Z" fill="#DF0A0A"/>
<path d="M387.726 79.5761C387.726 80.4939 388.465 81.2337 389.382 81.2337C390.299 81.2337 391.038 80.4939 391.038 79.5761C391.038 78.6583 390.299 77.9186 389.382 77.9186C388.478 77.9186 387.726 78.6583 387.726 79.5761Z" fill="#DF0A0A"/>
<path d="M371.808 81.2337C370.894 81.2337 370.152 80.4916 370.152 79.5761C370.152 78.6607 370.894 77.9186 371.808 77.9186C372.723 77.9186 373.464 78.6607 373.464 79.5761C373.464 80.4916 372.723 81.2337 371.808 81.2337Z" fill="#DF0A0A"/>
<path d="M477.344 100.713C476.429 100.713 475.688 99.9712 475.688 99.0557C475.688 98.1403 476.429 97.3982 477.344 97.3982C478.259 97.3982 479 98.1403 479 99.0557C479 99.9712 478.259 100.713 477.344 100.713Z" fill="#DF0A0A"/>
<path d="M458.087 99.0557C458.087 99.9736 458.826 100.713 459.743 100.713C460.66 100.713 461.399 99.9736 461.399 99.0557C461.399 98.1379 460.66 97.3982 459.743 97.3982C458.826 97.3982 458.087 98.1379 458.087 99.0557Z" fill="#DF0A0A"/>
<path d="M440.5 99.0557C440.5 99.9736 441.239 100.713 442.156 100.713C443.073 100.713 443.812 99.9736 443.812 99.0557C443.812 98.1379 443.073 97.3982 442.156 97.3982C441.239 97.3982 440.5 98.1379 440.5 99.0557Z" fill="#DF0A0A"/>
<path d="M424.569 100.713C423.655 100.713 422.913 99.9712 422.913 99.0557C422.913 98.1403 423.655 97.3982 424.569 97.3982C425.484 97.3982 426.225 98.1403 426.225 99.0557C426.225 99.9712 425.484 100.713 424.569 100.713Z" fill="#DF0A0A"/>
<path d="M406.982 100.713C406.068 100.713 405.326 99.9712 405.326 99.0557C405.326 98.1403 406.068 97.3982 406.982 97.3982C407.897 97.3982 408.638 98.1403 408.638 99.0557C408.638 99.9712 407.897 100.713 406.982 100.713Z" fill="#DF0A0A"/>
<path d="M387.726 99.0557C387.726 99.9736 388.465 100.713 389.382 100.713C390.299 100.713 391.038 99.9736 391.038 99.0557C391.038 98.1379 390.299 97.3982 389.382 97.3982C388.478 97.3982 387.726 98.1379 387.726 99.0557Z" fill="#DF0A0A"/>
<path d="M371.808 100.713C370.894 100.713 370.152 99.9712 370.152 99.0557C370.152 98.1403 370.894 97.3982 371.808 97.3982C372.723 97.3982 373.464 98.1403 373.464 99.0557C373.464 99.9712 372.723 100.713 371.808 100.713Z" fill="#DF0A0A"/>
<path d="M475.674 118.535C475.674 119.453 476.413 120.193 477.33 120.193C478.247 120.193 478.986 119.453 478.986 118.535C478.986 117.617 478.247 116.878 477.33 116.878C476.427 116.878 475.674 117.617 475.674 118.535Z" fill="#DF0A0A"/>
<path d="M458.087 118.535C458.087 119.453 458.826 120.193 459.743 120.193C460.66 120.193 461.399 119.453 461.399 118.535C461.399 117.617 460.66 116.878 459.743 116.878C458.826 116.878 458.087 117.617 458.087 118.535Z" fill="#DF0A0A"/>
<path d="M440.5 118.535C440.5 119.453 441.239 120.193 442.156 120.193C443.073 120.193 443.812 119.453 443.812 118.535C443.812 117.617 443.073 116.878 442.156 116.878C441.239 116.878 440.5 117.617 440.5 118.535Z" fill="#DF0A0A"/>
<path d="M422.913 118.535C422.913 119.453 423.652 120.193 424.569 120.193C425.486 120.193 426.225 119.453 426.225 118.535C426.225 117.617 425.486 116.878 424.569 116.878C423.652 116.878 422.913 117.617 422.913 118.535Z" fill="#DF0A0A"/>
<path d="M405.326 118.535C405.326 119.453 406.065 120.193 406.982 120.193C407.899 120.193 408.638 119.453 408.638 118.535C408.638 117.617 407.899 116.878 406.982 116.878C406.065 116.878 405.326 117.617 405.326 118.535Z" fill="#DF0A0A"/>
<path d="M387.726 118.535C387.726 119.453 388.465 120.193 389.382 120.193C390.299 120.193 391.038 119.453 391.038 118.535C391.038 117.617 390.299 116.878 389.382 116.878C388.478 116.878 387.726 117.617 387.726 118.535Z" fill="#DF0A0A"/>
<path d="M370.139 118.535C370.139 119.453 370.878 120.193 371.795 120.193C372.712 120.193 373.451 119.453 373.451 118.535C373.451 117.617 372.712 116.878 371.795 116.878C370.891 116.878 370.139 117.617 370.139 118.535Z" fill="#DF0A0A"/>
<path d="M477.344 139.673C476.429 139.673 475.688 138.93 475.688 138.015C475.688 137.1 476.429 136.357 477.344 136.357C478.259 136.357 479 137.1 479 138.015C479 138.93 478.259 139.673 477.344 139.673Z" fill="#DF0A0A"/>
<path d="M458.087 138.015C458.087 138.933 458.826 139.673 459.743 139.673C460.66 139.673 461.399 138.933 461.399 138.015C461.399 137.097 460.66 136.357 459.743 136.357C458.826 136.357 458.087 137.097 458.087 138.015Z" fill="#DF0A0A"/>
<path d="M440.5 138.015C440.5 138.933 441.239 139.673 442.156 139.673C443.073 139.673 443.812 138.933 443.812 138.015C443.812 137.097 443.073 136.357 442.156 136.357C441.239 136.357 440.5 137.097 440.5 138.015Z" fill="#DF0A0A"/>
<path d="M424.569 139.673C423.655 139.673 422.913 138.93 422.913 138.015C422.913 137.1 423.655 136.357 424.569 136.357C425.484 136.357 426.225 137.1 426.225 138.015C426.225 138.93 425.484 139.673 424.569 139.673Z" fill="#DF0A0A"/>
<path d="M406.982 139.673C406.068 139.673 405.326 138.93 405.326 138.015C405.326 137.1 406.068 136.357 406.982 136.357C407.897 136.357 408.638 137.1 408.638 138.015C408.638 138.93 407.897 139.673 406.982 139.673Z" fill="#DF0A0A"/>
<path d="M387.726 138.015C387.726 138.933 388.465 139.673 389.382 139.673C390.299 139.673 391.038 138.933 391.038 138.015C391.038 137.097 390.299 136.357 389.382 136.357C388.478 136.357 387.726 137.097 387.726 138.015Z" fill="#DF0A0A"/>
<path d="M371.808 139.673C370.894 139.673 370.152 138.93 370.152 138.015C370.152 137.1 370.894 136.357 371.808 136.357C372.723 136.357 373.464 137.1 373.464 138.015C373.464 138.93 372.723 139.673 371.808 139.673Z" fill="#DF0A0A"/>
</svg>
