<svg width="219" height="38" viewBox="0 0 219 38" fill="none" xmlns="http://www.w3.org/2000/svg">
<g clip-path="url(#clip0_93_1330)">
<path d="M0.0966797 15.1957C0.1885 14.1051 0.668581 13.0836 1.44966 12.317C2.23075 11.5503 3.26098 11.0894 4.3531 11.0179L7.47304 10.9415L7.90816 20.0271L0.0966797 15.1957Z" fill="#AF2323"/>
<path d="M0.076194 24.919C-0.161814 23.3652 0.16559 21.7776 0.998896 20.4447C1.8322 19.1118 3.11609 18.1222 4.61719 17.6557L6.22164 17.157L12.607 29.0429L0.076194 24.919Z" fill="#AF2323"/>
<path d="M43.905 16.2716L41.0156 11.2676L39.7503 9.07546L35.9686 2.52497C35.5526 1.80334 34.9537 1.20406 34.2324 0.787493C33.5111 0.370924 32.6928 0.15177 31.8598 0.1521H15.9871C15.1541 0.151769 14.3358 0.370922 13.6145 0.787491C12.8931 1.20406 12.2943 1.80334 11.8783 2.52497L3.94196 16.2716C3.83314 16.4609 3.73728 16.6575 3.65502 16.8598C3.38218 17.5287 3.26617 18.2512 3.31591 18.9719C3.36565 19.6925 3.57981 20.3923 3.94196 21.0173L5.44255 23.6169L6.71936 25.8263L11.798 34.6263L11.8783 34.764C12.2943 35.4856 12.8931 36.0849 13.6145 36.5015C14.3358 36.918 15.1541 37.1372 15.9871 37.1369H31.8598C32.6928 37.1372 33.5111 36.918 34.2324 36.5015C34.9537 36.0849 35.5526 35.4856 35.9686 34.764L43.905 21.0173C44.3222 20.2961 44.5419 19.4777 44.5419 18.6445C44.5419 17.8112 44.3222 16.9928 43.905 16.2716ZM38.9612 20.4292L32.9874 30.7757C32.674 31.3186 32.2231 31.7694 31.6802 32.0827C31.1372 32.396 30.5212 32.5607 29.8944 32.5603H17.9525C17.6861 32.5599 17.4205 32.5301 17.1606 32.4714C16.6808 32.3628 16.2287 32.1561 15.8326 31.8642C15.4366 31.5724 15.1053 31.2018 14.8594 30.7757L11.5943 25.1204L10.5413 23.2984L8.88566 20.4292C8.62143 19.9712 8.46223 19.4603 8.41955 18.9333C8.37688 18.4064 8.4518 17.8765 8.6389 17.382C8.70645 17.2014 8.78899 17.0267 8.88566 16.8598L14.8594 6.51326C15.1729 5.97035 15.6238 5.51957 16.1667 5.20627C16.7097 4.89297 17.3256 4.72821 17.9525 4.72857H29.8944C30.5212 4.72821 31.1372 4.89297 31.6801 5.20627C32.2231 5.51957 32.674 5.97035 32.9874 6.51326L33.4437 7.30226L35.2886 10.4986L36.1953 12.071L37.9254 15.0665L38.9612 16.8598C39.2742 17.4025 39.439 18.018 39.439 18.6445C39.439 19.271 39.2742 19.8864 38.9612 20.4292H38.9612Z" fill="white"/>
<g opacity="0.4">
<path d="M17.1605 32.4714C16.2337 32.962 15.2945 33.424 14.3428 33.8573C13.5332 34.2275 12.677 34.4862 11.7978 34.6263L6.71924 25.8263C8.35893 25.7073 9.98804 25.4714 11.5941 25.1204L14.8593 30.7757C15.1052 31.2018 15.4365 31.5724 15.8325 31.8643C16.2286 32.1561 16.6807 32.3628 17.1605 32.4714Z" fill="white"/>
<path d="M41.0157 11.2676C40.0028 12.5732 38.9728 13.8395 37.9255 15.0665L36.1953 12.071C37.3803 11.1127 38.5653 10.1142 39.7503 9.0755L41.0157 11.2676Z" fill="white"/>
<path d="M8.8857 20.4292L10.5412 23.2984C9.88996 23.4648 9.23578 23.6112 8.5787 23.7374C7.53822 23.9422 6.46427 23.9009 5.44259 23.6169L3.942 21.0173C3.57984 20.3923 3.36567 19.6926 3.31592 18.9719C3.26617 18.2512 3.38216 17.5287 3.655 16.8598C5.29355 17.2072 6.96394 17.3822 8.63891 17.382C8.45181 17.8765 8.37689 18.4064 8.41957 18.9333C8.46225 19.4603 8.62146 19.9712 8.8857 20.4292Z" fill="white"/>
<path d="M37.5468 6.44202L35.2888 10.499L33.4438 7.30202L37.5468 6.44202Z" fill="white"/>
</g>
<path d="M39.4805 4.04619L43.0865 4.83784C28.5433 18.5731 14.1659 26.6509 0.0761719 24.919C0.18749 26.4907 0.678102 28.0119 1.50599 29.3525C2.33387 30.6931 3.47436 31.813 4.82977 32.6164C6.18518 33.4197 7.71512 33.8826 9.28855 33.9653C10.862 34.048 12.432 33.7481 13.8642 33.0912C25.3916 27.8462 35.2662 18.1868 44.0899 5.72036L45.4679 9.07448L47.9836 0L39.4805 4.04619Z" fill="#DF0A0A"/>
<path d="M8.09996 22.9723C16.9151 21.2676 25.3151 16.184 33.4542 8.97689L33.8387 11.4787L37.0668 5.67712L30.5691 7.04041L33.0717 8.25988C20.7604 15.4281 9.50298 18.718 0.0963975 15.1957C-0.0840876 16.2777 0.000397593 17.3874 0.342617 18.4297C0.684837 19.472 1.27459 20.4158 2.06137 21.1802C2.84815 21.9447 3.80851 22.5071 4.86019 22.8192C5.91186 23.1313 7.02353 23.1839 8.09996 22.9723Z" fill="#DF0A0A"/>
<path d="M57.5891 30.5047C56.2312 30.5194 54.8924 30.1844 53.7014 29.5321C52.5424 28.9006 51.5635 27.984 50.8572 26.869C50.656 26.5571 50.544 26.1961 50.5334 25.825C50.5293 25.5853 50.5788 25.3476 50.6784 25.1294C50.778 24.9113 50.9252 24.7182 51.1091 24.5643C51.418 24.2601 51.8284 24.0806 52.2615 24.0604C52.5875 24.0574 52.9071 24.1516 53.1795 24.3309C53.4647 24.5192 53.7247 24.743 53.9534 24.9969C54.3831 25.5768 54.9286 26.061 55.5554 26.4188C56.1806 26.7518 56.8808 26.9189 57.5891 26.9041C58.4024 26.9176 59.2043 26.7125 59.9114 26.3104C60.5913 25.9189 61.1609 25.3615 61.5671 24.6903C61.985 24.0147 62.2035 23.2347 62.1975 22.4403V6.7806C62.1912 6.53439 62.2377 6.28969 62.3339 6.06296C62.4301 5.83623 62.5737 5.63273 62.7551 5.46615C63.1191 5.12159 63.6041 4.93409 64.1052 4.94415C64.3513 4.93374 64.5969 4.97478 64.8263 5.06466C65.0556 5.15455 65.2637 5.29129 65.4372 5.46615C65.6044 5.64075 65.735 5.84693 65.8216 6.07263C65.9081 6.29832 65.9487 6.53901 65.9411 6.7806V22.4403C65.9533 23.8598 65.5735 25.2551 64.8435 26.4725C64.1165 27.6914 63.0872 28.7018 61.8552 29.4061C60.5575 30.1485 59.084 30.5279 57.5891 30.5047Z" fill="white"/>
<path d="M86.8931 10.9203C87.1336 10.9121 87.3731 10.9543 87.5963 11.0442C87.8195 11.1341 88.0214 11.2697 88.189 11.4423C88.3562 11.6168 88.4868 11.8229 88.5734 12.0485C88.6599 12.2741 88.7005 12.5147 88.6929 12.7563V28.3084C88.7008 28.5499 88.6602 28.7905 88.5737 29.0161C88.4871 29.2416 88.3564 29.4476 88.189 29.6219C87.8409 29.9571 87.3764 30.1444 86.8931 30.1444C86.4099 30.1444 85.9454 29.9571 85.5972 29.6219C85.4298 29.4477 85.2988 29.2418 85.2122 29.0162C85.1256 28.7906 85.085 28.55 85.0928 28.3084V25.7166L85.8492 25.8602C85.8125 26.3738 85.6316 26.8667 85.3272 27.2821C84.9388 27.8656 84.4585 28.3823 83.9049 28.8123C83.2607 29.3176 82.5448 29.7241 81.7809 30.0184C80.9439 30.3465 80.0519 30.5116 79.1529 30.5047C77.5717 30.5263 76.0191 30.0817 74.6891 29.2264C73.3516 28.3558 72.2705 27.1442 71.5572 25.7166C70.7688 24.1424 70.3734 22.4007 70.4049 20.6404C70.3667 18.8623 70.7622 17.1015 71.5572 15.5106C72.2688 14.097 73.3435 12.898 74.671 12.0364C75.7333 11.3678 76.9348 10.952 78.1832 10.8209C79.4315 10.6899 80.6932 10.8471 81.8712 11.2806C82.6971 11.5883 83.4687 12.0257 84.1568 12.5765C84.7519 13.0449 85.2632 13.6109 85.669 14.2503C86.0004 14.7476 86.1873 15.327 86.209 15.9241L85.0928 16.0325V12.7562C85.084 12.2747 85.2652 11.8091 85.5972 11.4603C85.762 11.2828 85.9629 11.1427 86.1865 11.0495C86.4101 10.9564 86.6511 10.9123 86.8931 10.9203ZM79.5489 27.1923C80.6092 27.2118 81.6507 26.9109 82.5372 26.329C83.4112 25.7409 84.1081 24.9255 84.5528 23.9706C85.0275 22.9246 85.273 21.7892 85.273 20.6405C85.273 19.4918 85.0275 18.3564 84.5528 17.3104C84.1109 16.3587 83.413 15.5485 82.5372 14.9706C81.6468 14.3989 80.6068 14.1045 79.5489 14.1244C78.5082 14.1061 77.486 14.4009 76.6148 14.9706C75.7481 15.551 75.0522 16.3526 74.5992 17.2923C74.1129 18.3383 73.8609 19.4779 73.8609 20.6314C73.8609 21.7849 74.1129 22.9245 74.5992 23.9705C75.0513 24.9207 75.7467 25.7344 76.6148 26.3289C77.4821 26.9089 78.5058 27.2101 79.5489 27.1922V27.1923Z" fill="white"/>
<path d="M102.121 10.7762C103.286 10.7604 104.448 10.8996 105.577 11.1902C106.439 11.3938 107.245 11.7875 107.935 12.3426C108.194 12.5467 108.405 12.8061 108.551 13.1019C108.698 13.3978 108.776 13.7226 108.781 14.0526C108.781 14.4587 108.655 14.8549 108.421 15.1864C108.301 15.3587 108.138 15.4972 107.949 15.5886C107.76 15.6801 107.55 15.7213 107.341 15.7084C107.038 15.7195 106.737 15.6641 106.459 15.5463C106.231 15.4388 106.024 15.2928 105.847 15.1146C105.64 14.9158 105.403 14.7516 105.145 14.6283C104.777 14.4265 104.374 14.2981 103.957 14.2504C103.505 14.1731 103.047 14.131 102.589 14.1244C101.431 14.0937 100.288 14.3935 99.2948 14.9886C98.3795 15.5548 97.6334 16.3567 97.1346 17.3104C96.6053 18.3393 96.3393 19.4835 96.3607 20.6405C96.3407 21.8032 96.6064 22.9531 97.1346 23.9891C97.6234 24.9431 98.3563 25.7504 99.2586 26.3289C100.202 26.9167 101.297 27.2167 102.409 27.1922C102.995 27.2029 103.58 27.1489 104.155 27.0311C104.561 26.945 104.954 26.8058 105.325 26.617C105.666 26.4304 105.986 26.2071 106.279 25.951C106.577 25.7067 106.956 25.5842 107.341 25.6083C107.565 25.5934 107.79 25.6294 107.999 25.7136C108.208 25.7978 108.395 25.928 108.547 26.0946C108.827 26.4325 108.975 26.8615 108.961 27.3006C108.931 27.6121 108.83 27.9125 108.664 28.1779C108.499 28.4434 108.274 28.6666 108.007 28.8299C107.242 29.3846 106.382 29.7934 105.469 30.0359C104.321 30.3609 103.133 30.5187 101.941 30.5047C100.236 30.5435 98.5562 30.0938 97.099 29.2088C95.7251 28.3518 94.6159 27.1304 93.8949 25.6805C93.1207 24.1148 92.7318 22.3869 92.7606 20.6405C92.728 18.8817 93.1364 17.1427 93.9486 15.5824C94.7252 14.0973 95.9026 12.8597 97.3472 12.0101C98.7918 11.1606 100.446 10.7331 102.121 10.7762L102.121 10.7762Z" fill="white"/>
<path d="M114.505 30.1443C114.267 30.1493 114.031 30.1055 113.812 30.0157C113.592 29.9258 113.393 29.7918 113.227 29.6219C113.055 29.4503 112.92 29.2452 112.83 29.0193C112.74 28.7934 112.697 28.5514 112.705 28.3084V5.34014C112.698 5.0971 112.74 4.85514 112.83 4.62916C112.92 4.40319 113.055 4.19797 113.227 4.02614C113.572 3.69139 114.033 3.50415 114.514 3.50415C114.994 3.50415 115.456 3.69139 115.801 4.02614C115.968 4.20063 116.099 4.40671 116.185 4.63233C116.272 4.85795 116.313 5.09858 116.305 5.34014V28.3084C116.313 28.5499 116.272 28.7905 116.186 29.0161C116.099 29.2417 115.968 29.4476 115.801 29.6219C115.633 29.7947 115.431 29.9305 115.208 30.0205C114.985 30.1105 114.745 30.1527 114.505 30.1443ZM126.205 11.1365C126.439 11.1353 126.67 11.1864 126.882 11.286C127.094 11.3856 127.281 11.5312 127.429 11.7122C127.602 11.8759 127.737 12.076 127.824 12.2983C127.91 12.5205 127.946 12.7591 127.929 12.9969C127.912 13.2348 127.842 13.4657 127.724 13.6732C127.606 13.8806 127.444 14.0592 127.249 14.1961L115.981 24.2762L115.837 20.1365L124.909 11.7122C125.075 11.5331 125.275 11.3897 125.498 11.2907C125.72 11.1917 125.961 11.1392 126.205 11.1365ZM126.673 30.1082C126.42 30.1069 126.17 30.0516 125.941 29.946C125.711 29.8404 125.506 29.6869 125.341 29.4959L118.177 21.9002L120.913 19.3807L127.933 26.9764C128.297 27.3389 128.504 27.8305 128.509 28.3445C128.515 28.5925 128.461 28.8383 128.351 29.0607C128.241 29.2832 128.079 29.4757 127.879 29.6219C127.542 29.9137 127.118 30.0848 126.673 30.1082Z" fill="white"/>
<path d="M140.101 10.7762C141.267 10.7604 142.429 10.8996 143.557 11.1902C144.419 11.3938 145.225 11.7875 145.915 12.3426C146.175 12.5467 146.385 12.8061 146.532 13.1019C146.678 13.3978 146.756 13.7226 146.761 14.0526C146.762 14.4587 146.636 14.8549 146.401 15.1864C146.281 15.3587 146.119 15.4972 145.93 15.5886C145.74 15.6801 145.531 15.7213 145.321 15.7084C145.019 15.7195 144.718 15.6641 144.439 15.5463C144.212 15.4388 144.005 15.2928 143.827 15.1146C143.621 14.9158 143.384 14.7516 143.125 14.6283C142.758 14.4265 142.354 14.2981 141.937 14.2504C141.485 14.1731 141.028 14.131 140.569 14.1244C139.411 14.0937 138.269 14.3935 137.275 14.9886C136.36 15.5548 135.614 16.3567 135.115 17.3104C134.586 18.3393 134.32 19.4835 134.341 20.6405C134.321 21.8032 134.587 22.9531 135.115 23.9891C135.604 24.9431 136.337 25.7504 137.239 26.3289C138.183 26.9167 139.277 27.2167 140.389 27.1922C140.975 27.2029 141.561 27.1489 142.135 27.0311C142.542 26.945 142.935 26.8058 143.305 26.617C143.646 26.4304 143.966 26.2071 144.259 25.951C144.557 25.7067 144.937 25.5842 145.321 25.6083C145.546 25.5934 145.771 25.6294 145.98 25.7136C146.189 25.7978 146.376 25.928 146.527 26.0946C146.808 26.4325 146.955 26.8615 146.941 27.3006C146.912 27.6121 146.81 27.9125 146.645 28.1779C146.479 28.4434 146.254 28.6666 145.987 28.8299C145.223 29.3846 144.362 29.7934 143.449 30.0359C142.302 30.3609 141.114 30.5187 139.921 30.5047C138.217 30.5435 136.537 30.0938 135.079 29.2088C133.706 28.3518 132.596 27.1304 131.875 25.6805C131.101 24.1148 130.712 22.3869 130.741 20.6405C130.708 18.8817 131.117 17.1427 131.929 15.5824C132.706 14.0973 133.883 12.8597 135.328 12.0101C136.772 11.1606 138.426 10.7331 140.101 10.7762L140.101 10.7762Z" fill="white"/>
<path d="M159.217 30.5047C157.41 30.5501 155.623 30.1218 154.033 29.2625C152.6 28.4655 151.42 27.2801 150.631 25.8426C149.807 24.3117 149.392 22.5944 149.425 20.8563C149.37 18.9696 149.811 17.1016 150.703 15.4383C151.486 14.0105 152.635 12.8174 154.033 11.9822C155.349 11.1927 156.855 10.7758 158.389 10.7762C159.542 10.7716 160.683 11.0109 161.737 11.4783C163.892 12.4323 165.603 14.1695 166.525 16.3382C167.013 17.4954 167.27 18.7371 167.281 19.993C167.274 20.2203 167.219 20.4435 167.12 20.6482C167.021 20.8528 166.879 21.0342 166.705 21.1805C166.358 21.4878 165.909 21.6546 165.445 21.6483H151.441L150.577 18.5887H164.113L163.429 19.2361V18.3367C163.372 17.5337 163.07 16.7674 162.565 16.1404C162.063 15.518 161.43 15.014 160.711 14.6644C159.989 14.3069 159.195 14.1221 158.389 14.1244C157.685 14.1219 156.985 14.2374 156.319 14.4662C155.656 14.696 155.054 15.0712 154.555 15.5643C154.001 16.1289 153.583 16.8121 153.331 17.5623C153.006 18.5549 152.853 19.5962 152.881 20.6404C152.853 21.8448 153.138 23.0358 153.709 24.0965C154.23 25.0486 155.002 25.8395 155.941 26.3826C156.882 26.924 157.951 27.2035 159.037 27.1922C159.773 27.2122 160.507 27.1213 161.215 26.9227C161.724 26.7689 162.208 26.5448 162.655 26.2567C163.01 26.0231 163.353 25.7708 163.681 25.5008C163.993 25.2993 164.354 25.1872 164.725 25.1766C164.927 25.1711 165.128 25.2062 165.316 25.2798C165.503 25.3533 165.675 25.4639 165.819 25.6049C165.963 25.7459 166.078 25.9144 166.156 26.1005C166.234 26.2866 166.274 26.4865 166.273 26.6883C166.261 26.9731 166.183 27.2511 166.045 27.5009C165.908 27.7507 165.715 27.9655 165.481 28.1287C164.695 28.8392 163.786 29.4001 162.799 29.784C161.666 30.2631 160.447 30.5082 159.217 30.5047Z" fill="white"/>
<path d="M173.148 30.1443C172.905 30.1514 172.663 30.1088 172.437 30.019C172.211 29.9293 172.006 29.7943 171.834 29.6224C171.662 29.4505 171.527 29.2452 171.438 29.0193C171.348 28.7933 171.305 28.5514 171.312 28.3084V13.0443C171.305 12.8012 171.348 12.5593 171.437 12.3333C171.527 12.1073 171.662 11.902 171.834 11.7301C172.006 11.5581 172.211 11.4232 172.437 11.3334C172.663 11.2437 172.905 11.2012 173.148 11.2083C173.386 11.2035 173.621 11.2473 173.841 11.3371C174.061 11.4269 174.26 11.5607 174.426 11.7304C174.598 11.9022 174.733 12.1074 174.823 12.3334C174.912 12.5594 174.955 12.8013 174.948 13.0443V17.0766L174.588 15.5282C174.778 14.8607 175.076 14.2285 175.47 13.6567C175.864 13.0828 176.344 12.5727 176.892 12.1444C178.034 11.2558 179.441 10.7743 180.887 10.7763C181.468 10.7628 182.037 10.94 182.508 11.2807C182.717 11.4177 182.889 11.6045 183.009 11.8243C183.128 12.0442 183.191 12.2902 183.192 12.5404C183.215 12.7997 183.182 13.0609 183.095 13.3062C183.008 13.5516 182.869 13.7753 182.688 13.9623C182.387 14.2484 181.988 14.4093 181.572 14.4125C181.211 14.4125 180.855 14.3326 180.528 14.1786C180.154 14.0149 179.748 13.9349 179.34 13.9443C178.8 13.9533 178.27 14.089 177.792 14.3403C177.236 14.6267 176.746 15.0253 176.352 15.5107C175.906 16.0515 175.558 16.6669 175.326 17.3285C175.065 18.0807 174.937 18.8727 174.948 19.6689V28.3085C174.955 28.5515 174.913 28.7935 174.823 29.0194C174.733 29.2453 174.598 29.4504 174.426 29.622C174.26 29.7919 174.061 29.9259 173.841 30.0157C173.621 30.1055 173.386 30.1493 173.148 30.1443Z" fill="white"/>
<path d="M188.196 30.1443C187.953 30.1514 187.711 30.1088 187.485 30.019C187.259 29.9293 187.054 29.7943 186.882 29.6224C186.71 29.4505 186.575 29.2452 186.485 29.0193C186.396 28.7933 186.353 28.5514 186.36 28.3084V13.0443C186.353 12.8012 186.396 12.5593 186.485 12.3333C186.575 12.1073 186.71 11.902 186.882 11.73C187.054 11.5581 187.259 11.4231 187.485 11.3334C187.711 11.2437 187.953 11.2011 188.196 11.2083C188.433 11.2034 188.669 11.2473 188.889 11.337C189.109 11.4268 189.307 11.5607 189.473 11.7303C189.645 11.9022 189.781 12.1074 189.87 12.3333C189.96 12.5593 190.003 12.8012 189.996 13.0443V17.0765L189.636 15.5282C189.826 14.8606 190.124 14.2285 190.517 13.6566C190.911 13.0827 191.391 12.5727 191.94 12.1444C193.082 11.2558 194.488 10.7742 195.935 10.7762C196.516 10.7628 197.085 10.9399 197.555 11.2806C197.765 11.4176 197.937 11.6044 198.056 11.8243C198.176 12.0441 198.239 12.2902 198.24 12.5404C198.263 12.7997 198.23 13.0608 198.143 13.3062C198.056 13.5515 197.917 13.7752 197.736 13.9623C197.435 14.2484 197.036 14.4093 196.62 14.4125C196.259 14.4125 195.902 14.3326 195.576 14.1786C195.202 14.0149 194.796 13.9349 194.388 13.9442C193.848 13.9533 193.318 14.0889 192.84 14.3402C192.284 14.6267 191.794 15.0252 191.4 15.5106C190.954 16.0514 190.606 16.6668 190.374 17.3285C190.113 18.0807 189.985 18.8727 189.996 19.6688V28.3085C190.003 28.5515 189.961 28.7934 189.871 29.0193C189.781 29.2452 189.646 29.4503 189.473 29.6219C189.308 29.7918 189.109 29.9258 188.889 30.0157C188.669 30.1055 188.433 30.1493 188.196 30.1443Z" fill="white"/>
<path d="M216.528 10.9202C216.768 10.912 217.008 10.9542 217.231 11.0441C217.454 11.134 217.656 11.2696 217.824 11.4422C217.991 11.6167 218.122 11.8228 218.208 12.0485C218.295 12.2741 218.335 12.5147 218.328 12.7562V28.3084C218.336 28.5499 218.295 28.7905 218.208 29.016C218.122 29.2416 217.991 29.4476 217.824 29.6219C217.476 29.9571 217.011 30.1443 216.528 30.1443C216.045 30.1443 215.58 29.9571 215.232 29.6219C215.064 29.4477 214.934 29.2418 214.847 29.0162C214.76 28.7906 214.72 28.5499 214.728 28.3084V25.7166L215.484 25.8602C215.447 26.3739 215.266 26.8668 214.961 27.282C214.574 27.8658 214.093 28.3826 213.54 28.8123C212.895 29.3176 212.18 29.7241 211.416 30.0184C210.579 30.3465 209.687 30.5116 208.788 30.5047C207.206 30.5265 205.654 30.0819 204.324 29.2264C202.986 28.3558 201.905 27.1442 201.192 25.7166C200.404 24.1424 200.008 22.4007 200.04 20.6404C200.001 18.8623 200.397 17.1015 201.192 15.5105C201.904 14.0968 202.978 12.8978 204.306 12.0364C205.368 11.3678 206.57 10.952 207.818 10.8209C209.066 10.6899 210.328 10.8471 211.505 11.2806C212.332 11.588 213.103 12.0255 213.792 12.5765C214.387 13.0448 214.898 13.6108 215.303 14.2503C215.635 14.7474 215.822 15.3269 215.843 15.9241L214.728 16.0325V12.7562C214.719 12.2747 214.9 11.809 215.232 11.4603C215.397 11.2828 215.598 11.1427 215.821 11.0496C216.045 10.9564 216.286 10.9123 216.528 10.9202ZM209.184 27.1922C210.244 27.2118 211.285 26.9109 212.171 26.3289C213.046 25.741 213.743 24.9255 214.188 23.9705C214.662 22.9244 214.908 21.7891 214.908 20.6405C214.908 19.4918 214.662 18.3565 214.188 17.3104C213.746 16.3586 213.048 15.5485 212.171 14.9705C211.281 14.3989 210.242 14.1044 209.184 14.1243C208.143 14.1059 207.121 14.4007 206.25 14.9705C205.383 15.5512 204.687 16.3527 204.234 17.2923C203.748 18.3383 203.496 19.4779 203.496 20.6314C203.496 21.7849 203.748 22.9245 204.234 23.9705C204.686 24.9206 205.382 25.7342 206.25 26.3289C207.117 26.909 208.141 27.2102 209.184 27.1922V27.1922Z" fill="white"/>
</g>
<defs>
<clipPath id="clip0_93_1330">
<rect width="218.328" height="37.1368" fill="white"/>
</clipPath>
</defs>
</svg>
