<svg width="219" height="38" viewBox="0 0 219 38" fill="none" xmlns="http://www.w3.org/2000/svg">
<g clip-path="url(#clip0_68_4299)">
<path d="M0.0966187 15.1955C0.188439 14.1049 0.66852 13.0835 1.4496 12.3168C2.23068 11.5502 3.26092 11.0892 4.35304 11.0178L7.47298 10.9414L7.9081 20.027L0.0966187 15.1955Z" fill="#AF2323"/>
<path d="M0.076255 24.919C-0.161753 23.3652 0.165651 21.7775 0.998957 20.4447C1.83226 19.1118 3.11615 18.1221 4.61725 17.6556L6.2217 17.157L12.607 29.0428L0.076255 24.919Z" fill="#AF2323"/>
<path d="M43.9049 16.2716L41.0156 11.2676L39.7502 9.07546L35.9685 2.52497C35.5525 1.80334 34.9537 1.20406 34.2324 0.787493C33.5111 0.370924 32.6927 0.15177 31.8597 0.1521H15.987C15.1541 0.151769 14.3357 0.370922 13.6144 0.787491C12.8931 1.20406 12.2943 1.80334 11.8782 2.52497L3.9419 16.2716C3.83308 16.4609 3.73721 16.6575 3.65496 16.8598C3.38212 17.5287 3.26611 18.2512 3.31585 18.9719C3.36559 19.6925 3.57975 20.3923 3.9419 21.0173L5.44249 23.6169L6.7193 25.8263L11.7979 34.6263L11.8782 34.764C12.2943 35.4856 12.8931 36.0849 13.6144 36.5015C14.3357 36.918 15.1541 37.1372 15.987 37.1369H31.8597C32.6927 37.1372 33.511 36.918 34.2324 36.5015C34.9537 36.0849 35.5525 35.4856 35.9685 34.764L43.9049 21.0173C44.3222 20.2961 44.5419 19.4777 44.5419 18.6445C44.5419 17.8112 44.3222 16.9928 43.9049 16.2716ZM38.9612 20.4292L32.9874 30.7757C32.674 31.3186 32.2231 31.7694 31.6801 32.0827C31.1371 32.396 30.5212 32.5607 29.8943 32.5603H17.9525C17.686 32.5599 17.4204 32.5301 17.1605 32.4714C16.6807 32.3628 16.2286 32.1561 15.8326 31.8642C15.4366 31.5724 15.1052 31.2018 14.8594 30.7757L11.5942 25.1204L10.5412 23.2984L8.8856 20.4292C8.62137 19.9712 8.46217 19.4603 8.41949 18.9333C8.37682 18.4064 8.45174 17.8765 8.63884 17.382C8.70639 17.2014 8.78893 17.0267 8.8856 16.8598L14.8594 6.51326C15.1728 5.97035 15.6237 5.51957 16.1667 5.20627C16.7097 4.89297 17.3256 4.72821 17.9525 4.72857H29.8943C30.5212 4.72821 31.1371 4.89297 31.6801 5.20627C32.2231 5.51957 32.674 5.97035 32.9874 6.51326L33.4436 7.30226L35.2885 10.4986L36.1952 12.071L37.9253 15.0665L38.9612 16.8598C39.2742 17.4025 39.4389 18.018 39.4389 18.6445C39.4389 19.271 39.2742 19.8864 38.9612 20.4292H38.9612Z" fill="#16171A"/>
<g opacity="0.4">
<path d="M17.1605 32.4714C16.2338 32.962 15.2946 33.4239 14.3429 33.8572C13.5332 34.2274 12.6771 34.4861 11.7979 34.6262L6.7193 25.8262C8.35899 25.7072 9.9881 25.4714 11.5942 25.1204L14.8594 30.7756C15.1052 31.2017 15.4366 31.5724 15.8326 31.8642C16.2286 32.156 16.6807 32.3627 17.1605 32.4714Z" fill="#16171A"/>
<path d="M41.0155 11.2676C40.0027 12.5731 38.9726 13.8394 37.9253 15.0665L36.1952 12.071C37.3802 11.1126 38.5652 10.1141 39.7502 9.07544L41.0155 11.2676Z" fill="#16171A"/>
<path d="M8.88558 20.429L10.5411 23.2982C9.88984 23.4647 9.23566 23.611 8.57858 23.7372C7.5381 23.942 6.46415 23.9007 5.44247 23.6167L3.94188 21.0171C3.57972 20.3921 3.36555 19.6924 3.3158 18.9717C3.26605 18.251 3.38204 17.5285 3.65488 16.8596C5.29343 17.207 6.96382 17.382 8.63879 17.3818C8.45169 17.8763 8.37677 18.4062 8.41945 18.9332C8.46213 19.4601 8.62134 19.971 8.88558 20.429Z" fill="#16171A"/>
<path d="M37.547 6.44189L35.289 10.4989L33.444 7.30189L37.547 6.44189Z" fill="#16171A"/>
</g>
<path d="M39.4806 4.04619L43.0866 4.83784C28.5434 18.5731 14.166 26.6509 0.0762939 24.919C0.187612 26.4907 0.678224 28.0119 1.50611 29.3525C2.334 30.6931 3.47449 31.813 4.8299 32.6164C6.18531 33.4197 7.71524 33.8826 9.28867 33.9653C10.8621 34.048 12.4321 33.7481 13.8643 33.0912C25.3917 27.8462 35.2663 18.1868 44.0901 5.72036L45.468 9.07448L47.9837 0L39.4806 4.04619Z" fill="#DF0A0A"/>
<path d="M8.1002 22.9722C16.9154 21.2675 25.3154 16.1839 33.4545 8.97677L33.8389 11.4786L37.0671 5.677L30.5693 7.04029L33.0719 8.25976C20.7607 15.428 9.50322 18.7179 0.0966416 15.1955C-0.0838435 16.2776 0.000641733 17.3873 0.342861 18.4296C0.685081 19.4718 1.27484 20.4156 2.06161 21.1801C2.84839 21.9446 3.80875 22.507 4.86043 22.8191C5.91211 23.1312 7.02377 23.1837 8.1002 22.9722Z" fill="#DF0A0A"/>
<path d="M57.5893 30.5048C56.2314 30.5195 54.8926 30.1845 53.7016 29.5321C52.5426 28.9006 51.5636 27.9841 50.8574 26.869C50.6562 26.5571 50.5442 26.1961 50.5336 25.8251C50.5294 25.5853 50.579 25.3476 50.6786 25.1295C50.7782 24.9113 50.9254 24.7182 51.1093 24.5644C51.4182 24.2601 51.8286 24.0807 52.2617 24.0604C52.5877 24.0575 52.9073 24.1517 53.1797 24.331C53.4648 24.5192 53.7249 24.743 53.9536 24.997C54.3832 25.5769 54.9288 26.0611 55.5556 26.4188C56.1808 26.7519 56.881 26.919 57.5893 26.9042C58.4025 26.9177 59.2045 26.7126 59.9115 26.3104C60.5915 25.919 61.1611 25.3616 61.5673 24.6904C61.9852 24.0147 62.2037 23.2348 62.1977 22.4404V6.78066C62.1914 6.53445 62.2379 6.28975 62.3341 6.06302C62.4303 5.83629 62.5739 5.63279 62.7553 5.46621C63.1193 5.12165 63.6043 4.93415 64.1054 4.94421C64.3515 4.9338 64.5971 4.97484 64.8265 5.06473C65.0558 5.15461 65.2639 5.29135 65.4374 5.46621C65.6046 5.64081 65.7352 5.84699 65.8217 6.07269C65.9083 6.29838 65.9489 6.53907 65.9413 6.78066V22.4404C65.9535 23.8598 65.5736 25.2551 64.8437 26.4726C64.1167 27.6914 63.0874 28.7019 61.8554 29.4062C60.5577 30.1485 59.0841 30.528 57.5893 30.5048Z" fill="#16171A"/>
<path d="M86.8935 10.9203C87.134 10.9121 87.3735 10.9543 87.5967 11.0442C87.8198 11.1341 88.0217 11.2697 88.1894 11.4423C88.3566 11.6168 88.4872 11.8229 88.5737 12.0485C88.6603 12.2741 88.7009 12.5147 88.6933 12.7563V28.3084C88.7011 28.5499 88.6606 28.7905 88.574 29.0161C88.4875 29.2416 88.3567 29.4476 88.1894 29.6219C87.8413 29.9571 87.3768 30.1444 86.8935 30.1444C86.4102 30.1444 85.9457 29.9571 85.5976 29.6219C85.4301 29.4477 85.2992 29.2418 85.2126 29.0162C85.126 28.7906 85.0854 28.55 85.0932 28.3084V25.7166L85.8496 25.8602C85.8129 26.3738 85.6319 26.8667 85.3276 27.2821C84.9391 27.8656 84.4588 28.3823 83.9052 28.8123C83.2611 29.3176 82.5452 29.7241 81.7812 30.0184C80.9443 30.3465 80.0523 30.5116 79.1533 30.5047C77.5721 30.5263 76.0195 30.0817 74.6894 29.2264C73.3519 28.3558 72.2709 27.1442 71.5576 25.7166C70.7692 24.1424 70.3738 22.4007 70.4052 20.6404C70.367 18.8623 70.7625 17.1015 71.5576 15.5106C72.2692 14.097 73.3438 12.898 74.6714 12.0364C75.7336 11.3678 76.9352 10.952 78.1835 10.8209C79.4318 10.6899 80.6936 10.8471 81.8716 11.2806C82.6975 11.5883 83.4691 12.0257 84.1572 12.5765C84.7522 13.0449 85.2636 13.6109 85.6694 14.2503C86.0008 14.7476 86.1877 15.327 86.2094 15.9241L85.0932 16.0325V12.7562C85.0843 12.2747 85.2655 11.8091 85.5976 11.4603C85.7623 11.2828 85.9633 11.1427 86.1869 11.0495C86.4105 10.9564 86.6514 10.9123 86.8935 10.9203ZM79.5493 27.1923C80.6095 27.2118 81.651 26.9109 82.5376 26.329C83.4116 25.7409 84.1085 24.9255 84.5532 23.9706C85.0278 22.9246 85.2734 21.7892 85.2734 20.6405C85.2734 19.4918 85.0278 18.3564 84.5532 17.3104C84.1112 16.3587 83.4134 15.5485 82.5376 14.9706C81.6472 14.3989 80.6072 14.1045 79.5493 14.1244C78.5085 14.1061 77.4863 14.4009 76.6152 14.9706C75.7484 15.551 75.0525 16.3526 74.5996 17.2923C74.1132 18.3383 73.8613 19.4779 73.8613 20.6314C73.8613 21.7849 74.1132 22.9245 74.5996 23.9705C75.0516 24.9207 75.747 25.7344 76.6152 26.3289C77.4824 26.9089 78.5061 27.2101 79.5493 27.1922V27.1923Z" fill="#16171A"/>
<path d="M102.121 10.7761C103.286 10.7603 104.448 10.8996 105.577 11.1902C106.439 11.3937 107.245 11.7875 107.935 12.3425C108.194 12.5466 108.405 12.806 108.551 13.1019C108.698 13.3977 108.776 13.7225 108.781 14.0525C108.781 14.4586 108.656 14.8549 108.421 15.1863C108.301 15.3586 108.138 15.4972 107.949 15.5886C107.76 15.68 107.55 15.7212 107.341 15.7083C107.039 15.7194 106.737 15.6641 106.459 15.5462C106.231 15.4387 106.024 15.2927 105.847 15.1146C105.64 14.9158 105.403 14.7516 105.145 14.6282C104.777 14.4264 104.374 14.298 103.957 14.2503C103.505 14.1731 103.047 14.131 102.589 14.1243C101.431 14.0937 100.288 14.3935 99.2949 14.9886C98.3796 15.5547 97.6335 16.3567 97.1347 17.3103C96.6053 18.3393 96.3394 19.4835 96.3608 20.6404C96.3407 21.8032 96.6065 22.953 97.1347 23.989C97.6235 24.943 98.3563 25.7504 99.2587 26.3289C100.202 26.9166 101.297 27.2166 102.409 27.1922C102.995 27.2029 103.58 27.1488 104.155 27.031C104.561 26.945 104.955 26.8057 105.325 26.617C105.666 26.4303 105.986 26.207 106.279 25.951C106.577 25.7066 106.956 25.5842 107.341 25.6082C107.565 25.5933 107.791 25.6293 107.999 25.7135C108.208 25.7977 108.395 25.928 108.547 26.0945C108.828 26.4324 108.975 26.8614 108.961 27.3005C108.932 27.612 108.83 27.9124 108.664 28.1779C108.499 28.4433 108.274 28.6665 108.007 28.8298C107.242 29.3845 106.382 29.7934 105.469 30.0359C104.321 30.3608 103.133 30.5187 101.941 30.5046C100.236 30.5434 98.5563 30.0938 97.099 29.2087C95.7251 28.3517 94.616 27.1303 93.8949 25.6804C93.1207 24.1148 92.7318 22.3868 92.7607 20.6404C92.728 18.8816 93.1365 17.1427 93.9487 15.5823C94.7252 14.0972 95.9027 12.8596 97.3472 12.0101C98.7918 11.1605 100.446 10.733 102.121 10.7762L102.121 10.7761Z" fill="#16171A"/>
<path d="M114.505 30.1443C114.267 30.1493 114.032 30.1055 113.812 30.0157C113.592 29.9258 113.393 29.7918 113.227 29.6219C113.055 29.4503 112.92 29.2452 112.83 29.0193C112.74 28.7934 112.698 28.5514 112.705 28.3084V5.34014C112.698 5.0971 112.74 4.85514 112.83 4.62916C112.92 4.40319 113.055 4.19797 113.227 4.02614C113.572 3.69139 114.033 3.50415 114.514 3.50415C114.994 3.50415 115.456 3.69139 115.801 4.02614C115.968 4.20063 116.099 4.40671 116.185 4.63233C116.272 4.85795 116.313 5.09858 116.305 5.34014V28.3084C116.313 28.5499 116.272 28.7905 116.186 29.0161C116.099 29.2417 115.968 29.4476 115.801 29.6219C115.633 29.7947 115.431 29.9305 115.208 30.0205C114.985 30.1105 114.745 30.1527 114.505 30.1443ZM126.205 11.1365C126.439 11.1353 126.67 11.1864 126.882 11.286C127.094 11.3856 127.281 11.5312 127.429 11.7122C127.603 11.8759 127.737 12.076 127.824 12.2983C127.91 12.5205 127.946 12.7591 127.929 12.9969C127.912 13.2348 127.842 13.4657 127.724 13.6732C127.606 13.8806 127.444 14.0592 127.249 14.1961L115.981 24.2762L115.837 20.1365L124.909 11.7122C125.075 11.5331 125.275 11.3897 125.498 11.2907C125.721 11.1917 125.961 11.1392 126.205 11.1365ZM126.673 30.1082C126.42 30.1069 126.17 30.0516 125.941 29.946C125.711 29.8404 125.506 29.6869 125.341 29.4959L118.177 21.9002L120.913 19.3807L127.933 26.9764C128.298 27.3389 128.504 27.8305 128.509 28.3445C128.515 28.5925 128.461 28.8383 128.351 29.0607C128.241 29.2832 128.079 29.4757 127.879 29.6219C127.542 29.9137 127.118 30.0848 126.673 30.1082Z" fill="#16171A"/>
<path d="M140.102 10.7761C141.267 10.7603 142.429 10.8996 143.557 11.1902C144.419 11.3937 145.225 11.7875 145.915 12.3425C146.175 12.5466 146.385 12.806 146.532 13.1019C146.678 13.3977 146.756 13.7225 146.761 14.0525C146.762 14.4586 146.636 14.8549 146.401 15.1863C146.281 15.3586 146.119 15.4972 145.93 15.5886C145.74 15.68 145.531 15.7212 145.321 15.7083C145.019 15.7194 144.718 15.6641 144.439 15.5462C144.212 15.4387 144.005 15.2927 143.827 15.1146C143.621 14.9158 143.384 14.7516 143.125 14.6282C142.758 14.4264 142.354 14.298 141.937 14.2503C141.485 14.1731 141.028 14.131 140.569 14.1243C139.412 14.0937 138.269 14.3935 137.275 14.9886C136.36 15.5547 135.614 16.3567 135.115 17.3103C134.586 18.3393 134.32 19.4835 134.341 20.6404C134.321 21.8032 134.587 22.953 135.115 23.989C135.604 24.943 136.337 25.7504 137.239 26.3289C138.183 26.9166 139.278 27.2166 140.389 27.1922C140.975 27.2029 141.561 27.1488 142.135 27.031C142.542 26.945 142.935 26.8057 143.305 26.617C143.646 26.4303 143.966 26.207 144.259 25.951C144.557 25.7066 144.937 25.5842 145.321 25.6082C145.546 25.5933 145.771 25.6293 145.98 25.7135C146.189 25.7977 146.376 25.928 146.527 26.0945C146.808 26.4324 146.955 26.8614 146.941 27.3005C146.912 27.612 146.81 27.9124 146.645 28.1779C146.479 28.4433 146.254 28.6665 145.987 28.8298C145.223 29.3845 144.362 29.7934 143.449 30.0359C142.302 30.3608 141.114 30.5187 139.921 30.5046C138.217 30.5434 136.537 30.0938 135.08 29.2087C133.706 28.3517 132.596 27.1303 131.875 25.6804C131.101 24.1148 130.712 22.3868 130.741 20.6404C130.708 18.8816 131.117 17.1427 131.929 15.5823C132.706 14.0972 133.883 12.8596 135.328 12.0101C136.772 11.1605 138.426 10.733 140.101 10.7762L140.102 10.7761Z" fill="#16171A"/>
<path d="M159.217 30.5047C157.41 30.5501 155.623 30.1218 154.033 29.2625C152.6 28.4655 151.421 27.2801 150.631 25.8426C149.808 24.3117 149.392 22.5944 149.425 20.8563C149.371 18.9696 149.811 17.1016 150.704 15.4383C151.486 14.0105 152.636 12.8174 154.033 11.9822C155.349 11.1927 156.855 10.7758 158.39 10.7762C159.543 10.7716 160.683 11.0109 161.737 11.4783C163.892 12.4323 165.604 14.1695 166.525 16.3382C167.013 17.4954 167.27 18.7371 167.281 19.993C167.274 20.2203 167.219 20.4435 167.12 20.6482C167.021 20.8528 166.88 21.0342 166.706 21.1805C166.358 21.4878 165.909 21.6546 165.445 21.6483H151.441L150.578 18.5887H164.113L163.429 19.2361V18.3367C163.372 17.5337 163.07 16.7674 162.565 16.1404C162.064 15.518 161.43 15.014 160.711 14.6644C159.99 14.3069 159.195 14.1221 158.39 14.1244C157.685 14.1219 156.985 14.2374 156.319 14.4662C155.657 14.696 155.054 15.0712 154.556 15.5643C154.001 16.1289 153.583 16.8121 153.332 17.5623C153.006 18.5549 152.854 19.5962 152.881 20.6404C152.853 21.8448 153.138 23.0358 153.709 24.0965C154.23 25.0486 155.002 25.8395 155.941 26.3826C156.883 26.924 157.952 27.2035 159.038 27.1922C159.773 27.2122 160.507 27.1213 161.215 26.9227C161.724 26.7689 162.209 26.5448 162.655 26.2567C163.011 26.0231 163.353 25.7708 163.682 25.5008C163.993 25.2993 164.354 25.1872 164.726 25.1766C164.927 25.1711 165.128 25.2062 165.316 25.2798C165.504 25.3533 165.675 25.4639 165.819 25.6049C165.964 25.7459 166.078 25.9144 166.156 26.1005C166.234 26.2866 166.274 26.4865 166.273 26.6883C166.261 26.9731 166.183 27.2511 166.046 27.5009C165.908 27.7507 165.715 27.9655 165.481 28.1287C164.696 28.8392 163.787 29.4001 162.799 29.784C161.666 30.2631 160.448 30.5082 159.217 30.5047Z" fill="#16171A"/>
<path d="M173.148 30.1444C172.905 30.1515 172.663 30.1088 172.437 30.0191C172.212 29.9293 172.006 29.7943 171.834 29.6224C171.662 29.4505 171.528 29.2453 171.438 29.0193C171.348 28.7934 171.305 28.5515 171.312 28.3085V13.0443C171.305 12.8013 171.348 12.5593 171.438 12.3333C171.527 12.1073 171.662 11.9021 171.834 11.7301C172.006 11.5582 172.211 11.4232 172.437 11.3335C172.663 11.2438 172.905 11.2012 173.148 11.2084C173.386 11.2036 173.621 11.2474 173.841 11.3372C174.061 11.4269 174.26 11.5608 174.426 11.7304C174.598 11.9023 174.733 12.1075 174.823 12.3335C174.912 12.5594 174.955 12.8013 174.948 13.0444V17.0766L174.588 15.5283C174.778 14.8607 175.076 14.2286 175.47 13.6567C175.864 13.0828 176.344 12.5728 176.893 12.1445C178.034 11.2559 179.441 10.7744 180.888 10.7764C181.468 10.7629 182.037 10.94 182.508 11.2807C182.717 11.4178 182.889 11.6046 183.009 11.8244C183.128 12.0443 183.191 12.2903 183.192 12.5405C183.215 12.7998 183.182 13.061 183.095 13.3063C183.008 13.5516 182.869 13.7754 182.688 13.9624C182.387 14.2485 181.988 14.4094 181.572 14.4126C181.211 14.4126 180.855 14.3327 180.528 14.1787C180.154 14.015 179.748 13.935 179.34 13.9443C178.8 13.9534 178.27 14.089 177.792 14.3403C177.236 14.6268 176.746 15.0253 176.352 15.5107C175.906 16.0515 175.559 16.6669 175.326 17.3286C175.065 18.0808 174.937 18.8728 174.948 19.6689V28.3086C174.955 28.5516 174.913 28.7935 174.823 29.0194C174.733 29.2453 174.598 29.4504 174.426 29.6221C174.26 29.7919 174.061 29.9259 173.841 30.0158C173.622 30.1056 173.386 30.1494 173.148 30.1444Z" fill="#16171A"/>
<path d="M188.196 30.1442C187.953 30.1513 187.711 30.1087 187.485 30.0189C187.259 29.9292 187.054 29.7942 186.882 29.6223C186.71 29.4503 186.575 29.2451 186.486 29.0192C186.396 28.7932 186.353 28.5513 186.36 28.3083V13.0442C186.353 12.8011 186.396 12.5591 186.485 12.3331C186.575 12.1071 186.71 11.9019 186.882 11.7299C187.054 11.558 187.259 11.423 187.485 11.3333C187.711 11.2435 187.953 11.201 188.196 11.2082C188.433 11.2033 188.669 11.2471 188.889 11.3369C189.109 11.4267 189.308 11.5605 189.474 11.7302C189.646 11.902 189.781 12.1072 189.871 12.3332C189.96 12.5592 190.003 12.8011 189.996 13.0442V17.0764L189.636 15.5281C189.826 14.8605 190.124 14.2283 190.518 13.6565C190.912 13.0826 191.391 12.5726 191.94 12.1443C193.082 11.2557 194.489 10.7741 195.935 10.7761C196.516 10.7626 197.085 10.9398 197.556 11.2805C197.765 11.4175 197.937 11.6043 198.057 11.8242C198.176 12.044 198.239 12.2901 198.24 12.5403C198.263 12.7995 198.23 13.0607 198.143 13.306C198.056 13.5514 197.917 13.7751 197.736 13.9621C197.435 14.2482 197.036 14.4091 196.62 14.4123C196.259 14.4123 195.903 14.3325 195.576 14.1784C195.202 14.0147 194.796 13.9347 194.388 13.9441C193.848 13.9531 193.318 14.0888 192.84 14.3401C192.284 14.6266 191.794 15.0251 191.4 15.5105C190.954 16.0513 190.606 16.6667 190.374 17.3284C190.113 18.0805 189.985 18.8725 189.996 19.6687V28.3083C190.003 28.5514 189.961 28.7933 189.871 29.0192C189.781 29.2451 189.646 29.4502 189.474 29.6218C189.308 29.7917 189.109 29.9257 188.889 30.0156C188.669 30.1054 188.434 30.1492 188.196 30.1442Z" fill="#16171A"/>
<path d="M216.528 10.9202C216.769 10.912 217.008 10.9542 217.231 11.0441C217.455 11.134 217.657 11.2696 217.824 11.4422C217.991 11.6167 218.122 11.8228 218.208 12.0485C218.295 12.2741 218.336 12.5147 218.328 12.7562V28.3084C218.336 28.5499 218.295 28.7905 218.209 29.016C218.122 29.2416 217.991 29.4476 217.824 29.6219C217.476 29.9571 217.012 30.1443 216.528 30.1443C216.045 30.1443 215.58 29.9571 215.232 29.6219C215.065 29.4477 214.934 29.2418 214.847 29.0162C214.761 28.7906 214.72 28.5499 214.728 28.3084V25.7166L215.484 25.8602C215.448 26.3739 215.267 26.8668 214.962 27.282C214.574 27.8658 214.094 28.3826 213.54 28.8123C212.896 29.3176 212.18 29.7241 211.416 30.0184C210.579 30.3465 209.687 30.5116 208.788 30.5047C207.207 30.5265 205.654 30.0819 204.324 29.2264C202.987 28.3558 201.906 27.1442 201.192 25.7166C200.404 24.1424 200.009 22.4007 200.04 20.6404C200.002 18.8623 200.397 17.1015 201.192 15.5105C201.904 14.0968 202.979 12.8978 204.307 12.0364C205.369 11.3678 206.57 10.952 207.818 10.8209C209.066 10.6899 210.328 10.8471 211.506 11.2806C212.332 11.588 213.104 12.0255 213.792 12.5765C214.387 13.0448 214.898 13.6108 215.304 14.2503C215.635 14.7474 215.822 15.3269 215.844 15.9241L214.728 16.0325V12.7562C214.719 12.2747 214.9 11.809 215.232 11.4603C215.397 11.2828 215.598 11.1427 215.822 11.0496C216.045 10.9564 216.286 10.9123 216.528 10.9202ZM209.185 27.1922C210.244 27.2118 211.286 26.9109 212.172 26.3289C213.046 25.741 213.743 24.9255 214.188 23.9705C214.663 22.9244 214.908 21.7891 214.908 20.6405C214.908 19.4918 214.663 18.3565 214.188 17.3104C213.746 16.3586 213.048 15.5485 212.172 14.9705C211.282 14.3989 210.242 14.1044 209.185 14.1243C208.144 14.1059 207.121 14.4007 206.25 14.9705C205.383 15.5512 204.687 16.3527 204.234 17.2923C203.748 18.3383 203.496 19.4779 203.496 20.6314C203.496 21.7849 203.748 22.9245 204.234 23.9705C204.687 24.9206 205.382 25.7342 206.25 26.3289C207.117 26.909 208.141 27.2102 209.185 27.1922V27.1922Z" fill="#16171A"/>
</g>
<defs>
<clipPath id="clip0_68_4299">
<rect width="218.328" height="37.1368" fill="white"/>
</clipPath>
</defs>
</svg>
